<?xml version="1.0" encoding="utf-8"?>
<!-- Generator: Adobe Illustrator 22.0.0, SVG Export Plug-In . SVG Version: 6.00 Build 0)  -->
<svg version="1.1" id="Layer_1" xmlns="http://www.w3.org/2000/svg" xmlns:xlink="http://www.w3.org/1999/xlink" x="0px" y="0px"
	 viewBox="0 0 58.2 93.8" style="enable-background:new 0 0 58.2 93.8;" xml:space="preserve">
<style type="text/css">
	.st0{fill:#393b45;}
</style>
<path class="st0" d="M30,77.7c0.4,0.1,0.4-0.2,0.6-0.5C30.3,77.3,30.1,77.4,30,77.7z M30.7,77c0.4-0.1,0.7-0.2,0.7-0.7
	C31,76.4,30.8,76.7,30.7,77z M57.9,88.1c-0.1-0.1-0.2-0.2-0.3-0.4c-0.1-0.3-0.3-0.7-0.6-1c-0.3-0.3-0.6-0.6-0.9-0.9
	c-0.6-0.6-1-1-1.6-1.4c-0.5-0.3-0.7-0.7-1-1.1c-0.2-0.3-0.4-0.6-0.7-0.9c-0.3-0.3-0.5-0.4-0.7-0.5c-0.3-0.2-0.5-0.3-1-0.9
	c-0.5-0.6-0.8-0.9-1.2-1.1c-0.2-0.2-0.4-0.3-0.6-0.5c-0.4-0.7-0.8-1-1.7-1.8c-0.5-0.5-0.7-0.8-0.9-1.1c-0.1-0.2-0.3-0.4-0.5-0.7
	c-0.3-0.3-0.6-0.4-0.9-0.5c-0.3-0.1-0.7-0.1-0.9-0.6c-0.5-0.9-1.7-1.5-2-1.6c-0.5-0.8-1.8-1.4-2.2-1.5l-0.5-1
	c-0.5-0.9-1.6-1.2-2.1-1.3c0.7-5.4-1-8.3-1.4-8.9c0.1-0.2,0.2-0.6,0.6-1.1c0.3-0.4,0.4-0.8,0.6-1.2c0.2-0.4,0.3-0.8,0.6-1.1
	c0.1-0.1,0.3-0.2,0.4-0.3c0.4-0.3,0.6-0.5,0.6-1.4c0-0.3-0.1-0.5-0.1-0.7c-0.1-0.7-0.2-1.3,0.2-2c0.4-0.7,0.2-1.3,0-1.8
	c-0.1-0.4-0.3-0.8-0.3-1.2c0-0.8-0.5-1.1-0.9-1.2c-0.3-0.1-0.4-0.2-0.4-0.4c-0.1-1-0.6-1.6-1.4-1.7c-0.2,0-0.3,0-0.4,0
	C35,46,34.7,46,34.2,45.4c-0.5-0.5-1-0.4-1.4-0.3c-0.3,0.1-0.4,0.1-0.5,0c-0.4-0.4-1.2-0.4-2.5-0.4h-0.2c-1.1,0-2-0.1-2.2-0.2
	c-0.2-0.2-1-1-1.2-3.2c-0.2-2.2,0.3-4.8,0.5-5.5c0.3,0,0.9,0,1.6-0.3c0.4-0.2,0.6-0.3,0.8-0.4c0.3-0.2,0.4-0.3,1-0.3
	c0.7-0.1,0.9-0.4,1.2-0.7c0.2-0.2,0.4-0.5,0.8-0.6c0.9-0.4,2.5-1.3,3.1-2.8c0.3-0.8,0.7-1,1.2-1.3c0.4-0.2,0.8-0.5,1.3-0.9
	c0.9-0.8,1.2-1.9,1.4-2.7c0.1-0.4,0.2-0.7,0.3-0.9c0.2-0.4,0.3-0.8,0.5-1.2c0.2-0.6,0.4-1.3,0.8-1.9c0.4-0.7,0.4-1.4,0.4-2.2
	c0-0.5,0-0.9,0.1-1.5c0.2-1.1-0.1-2.2-0.3-3.2c-0.1-0.5-0.2-1-0.3-1.4c-0.1-1.2-1.1-2.3-1.8-3.3c-0.1-0.2-0.3-0.3-0.4-0.5
	c-0.8-1-1.1-1.6-1-2.1c0.1-0.9-0.3-1.5-1.5-2.1c-0.7-0.4-1-0.9-1.4-1.4c-0.2-0.4-0.4-0.7-0.8-1c-0.5-0.3-0.7-0.6-0.9-1.1
	c0-0.1-0.1-0.2-0.2-0.3c-0.1-0.2-0.2-0.3-0.3-0.5c-0.2-0.4-0.6-0.4-1.1-0.2C31.1,0.8,31,1,31,1.2c0.8,0.1,1.5,0.4,1.3,1.1
	c-0.2,0.7-1.5,0.4-1.9,0.5c-0.5,0.1-0.9,0.7-1.4,0.7c-0.6,0-0.9-0.2-1.4,0.2C25.8,2,29.6,2.5,30.8,2c0-0.4-0.1-0.7-0.2-1
	c-0.1,0.1-0.3,0.1-0.4,0.2c0.1,0.2,0.1,0.4-0.2,0.4c-0.1,0-0.2-0.1-0.3-0.2c-0.3,0.2-0.6,0.3-0.9,0.4C28,2.2,27,2.1,25.8,2
	c-0.1,0.1-0.1,0.1-0.3,0.1c-0.1,0-0.2-0.1-0.3-0.2c-0.1,0-0.1,0-0.2,0c-1.4-0.1-1.2,0-0.3,1.6c0.3,0.5,0.5,0.9,0.8,1.4
	c0.1,0.1,0.1,0.2,0.2,0.3c0.2,0.4,0.3,0.7,0.4,1c-1.8-0.6-3.8-0.8-5.9-0.7c0.1-0.2,0.2-0.6,0.3-1c0.2-0.3,0.4-0.7,0.7-1.1
	c0.3-0.4,0.4-0.7,0.4-1c0-0.1,0-0.1,0-0.2c0-0.1-0.2-0.3-0.4-0.5c-0.2-0.1-0.4-0.2-0.6-0.4c-0.4-0.3-0.7-0.2-1.1-0.2
	c-0.1,0.1-0.2,0.1-0.3,0.1c-0.2,0-0.7-0.4-1.2-0.6c-0.4,0-0.8,0.3-1.8-0.1c-0.2-0.1-0.3-0.1-0.5-0.2c0,0-0.1,0.1-0.1,0.1
	c-0.1,0.7,0.8,0.4,1.3,0.7c0.2,0.1,0.4,0.6,0.8,0.8c0.7,0.4,1.5,0.2,1.7,0.5c0.4,0.5-0.1,1.2-0.8,1.1c-0.3,0-0.5-0.9-1-0.5
	c-0.5-1.4-2.2-1.8-3.4-1.8c1.2,1,2.4,2.5,3.7,3c-0.4,0.1-1.4,0.5-2.1,0.1c-0.2-0.1-0.8-1.3-1-1.6c-0.4-0.6-1.1-1.2-1.1-1.6
	c0-0.6,0.9-0.6,0.7-1.3c-0.1,0-0.1,0-0.2,0c-0.2,0-0.3,0.1-0.5,0.2l0,0c-0.3,0.2-0.8,0.5-1,0.6c-0.3,0.3-0.4,0.5-0.9,0.6
	c-0.5,0.1-0.7,0.5-0.8,0.9c-0.1,0.4-0.2,0.6-0.7,0.7C9.7,3,9.5,3.1,9.4,3.6c0,0.2-0.1,0.4-0.2,0.7C9,4.9,8.8,5,8.5,5.1
	C8.3,5.1,8,5.2,7.6,5.6C7.2,6,7.1,6.5,7,6.9C6.9,7.2,6.9,7.5,6.6,7.8C6.1,8.1,6,8.6,6,8.9c0,0.3-0.1,0.5-0.3,0.7
	C5.3,9.9,5.1,10.4,5,11c-0.1,0.5-0.3,0.9-0.5,1.2c-0.6,0.6-0.2,1.4,0,1.8c-1.1,0.9-0.5,2.6-0.4,3C4,17,4,17.2,3.7,17.5
	c-0.3,0.4-0.1,0.9,0,1.5c0.1,0.4,0.3,0.9,0.1,1.1c-0.2,0.5,0,1.1,0.2,1.7c0.1,0.4,0.3,0.7,0.2,0.9c-0.1,0.3,0.2,0.9,0.5,1.5
	c0.3,0.5,0.5,1.1,0.5,1.5c0,0.6,0.5,1.2,1,1.8c0.3,0.4,0.6,0.7,0.7,1c0.2,0.7,0.5,1.5,1.3,1.7c0.7,0.2,0.8,0.3,1.1,1.2
	c0.2,0.7,0.7,1,1.2,1.2c0.3,0.1,0.5,0.2,0.7,0.4c0.3,0.3,0.8,0.4,1.2,0.5c0.5,0.1,0.9,0.2,1.2,0.6c0.6,0.6,1.5,0.5,1.9,0.5
	c0.1,0.9,0.4,4.4,0.9,7.5c0.5,3.1,1.5,4.9,2,5.6c-0.5,0.1-1.3,0.2-1.8,0.7c-0.6,0.6-0.8,0.7-1.6,0.8c-0.8,0.1-1.3,0.9-1.5,1.2
	c-0.9-0.1-2.2,0.8-2.4,1c-0.8,0.2-1.9,1.4-2.2,1.8C8.4,53,8,53.3,7.7,53.4c-1.2-1.9-2.9-2.9-5-2.9c-1.3,0-1.7,0.5-1.8,0.8
	c-0.2,0.7,0.4,1.6,1.5,2.5c1.6,1.1,2.1,2.1,2.2,2.3c-0.1,0.2-0.3,0.6-0.7,1.3c-0.3,0.6-0.5,0.6-0.8,0.7c-0.2,0.1-0.3,0.1-0.6,0.3
	c-0.4,0.3-0.5,0.8-0.6,1.3c-0.1,0.3-0.1,0.6-0.3,0.7c-0.5,0.3-0.7,1-0.8,1.8c0,0.1-0.1,0.2-0.1,0.4c-0.1,0.2-0.1,0.4-0.2,0.6
	c-0.2,0.6-0.5,1.2-0.6,2.4c-0.1,1.6,0.4,2.2,1.1,3.1l0.2,0.2c0.5,0.7,1,0.9,1.5,1.1c0.3,0.1,0.6,0.2,0.9,0.5c0.9,0.5,2,0.7,2.4,0.8
	c0.2,2.4,1.2,4.1,1.5,4.5c-0.3,0.4-1.1,1.7-1.9,2.4c-0.8,0.7-0.7,1.9-0.6,2.3L4.7,81c-0.3,0.4-0.4,0.9-0.5,1.3
	c-0.1,0.4-0.2,0.9-0.4,1.2c-0.3,0.5-0.3,1-0.4,1.5c0,0.4,0,0.7-0.2,1C2.9,86.7,2.7,87,3,87.9c0.1,0.5,0.2,1.2-0.1,2.1
	c-0.1,0.3-0.2,0.5-0.3,0.8c-0.3,0.5-0.2,1,0.2,1.5c0.2-1.3,1.6-1,2.5-1.5c0.1,0.4,0.5,0.6,0.5,1.1c-0.4,0.1-0.5-0.7-0.8-0.3
	c0.6,1-1.2,1.1-0.5,1.8c0.6,0.6,1,0.3,1.3-0.2c0-0.3,0.1-0.7,0.4-1.1c0.2-0.3,0.3-0.7,0.4-1c0,0,0-0.1,0-0.1c0.6-1.1,1-1.8,1.3-2.8
	l0.1-0.3C8.2,87,8.2,86.4,8.2,86c0-0.4,0-0.6,0.1-0.9c0.1-0.2,0.2-0.5,0.4-0.8c0.3-0.6,0.8-1.3,0.8-2.3c0-1,0.6-1.8,0.9-2.2
	c0.8,1,4.6,5,12,4.4c9.1-0.8,13.2-8.4,14-10.1c0.3,0.3,0.9,0.9,1.6,1.2c1,0.5,1.7,0.9,2.4,1.8c0.4,0.5,0.8,0.8,1.1,1.1
	c0.4,0.3,0.7,0.6,1,1c0.6,0.9,1.1,1.2,1.7,1.4c0.1,0.1,0.3,0.3,0.5,0.6c0.4,0.5,0.8,1.1,1.4,1.2c0.7,0.2,1.6,1.4,2.2,2.2l0.1,0.2
	c0.5,0.7,1,1.1,1.5,1.6c0.2,0.2,0.4,0.3,0.6,0.6c0.7,0.7,0.8,0.8,1.5,2c0.5,0.9,1.2,0.9,1.6,0.9c0,0,0.3-0.1,0.4-0.1c0,0,0,0,0,0
	c0,0.2,0.1,0.6,0.4,1c1.3-0.5,0.2-3.7,1.1-3.9c0.5-0.1,0.9,0.5,1,1.1c0.2,1.2-1.2,2.9-1.1,3.7c0.7,0.2,1.5,0.1,2.4-1.1
	C58.4,89.5,58.3,88.7,57.9,88.1z M6.3,78.3c0.6,0.2-0.4,1.1,0.5,1.1c-0.2,0.5-0.8,0-1.1,0.3C5.7,79.1,6.1,78.8,6.3,78.3z M5.2,81.1
	l0.4-0.5l0-0.1c0.2-0.2,0.5-0.4,1-0.4c0,0.4,0,0.7-0.2,0.9c0,0.3,0.6,0.2,0.7,0.5c-0.5,0.6-1.2,1.1-2.3,1.1
	C4.9,82.1,5,81.5,5.2,81.1z M6.6,84.3c-1,0.1-1.4,1.3-2.4,1C3.4,83.3,6.2,82.3,6.6,84.3z M3.8,88.6c0.9,0,2-0.7,2.1,0.5
	c0,0.4-0.2,0.1-0.3,0.2c-0.1,0.1,0.1,0.4,0,0.6c-0.3,0.7-1.7,0.8-2.3,1.3c-0.1-1,0-1.9,0.5-2.4c-0.1-0.1-0.2-0.3-0.2-0.5
	c0-0.2,0-0.3-0.1-0.5c0-0.1,0-0.2-0.1-0.3c0-0.5,0.2-1,0.5-1.3c0.4-0.4,1.2,0,1.3-0.7c0.5,0.5,0.9,1,1.1,1.7
	C5.3,87.2,4.6,88.2,3.8,88.6z M5.8,85.3c0.7,0,0.9,0.5,0.9,1.1C6.1,86.4,5.9,85.8,5.8,85.3z M7.2,84.4c-0.3-0.6-0.9-0.9-1-1.7
	C7.2,82.3,7.6,83.8,7.2,84.4z M7.4,80.1C6.9,80,7,79.3,7.6,79.5C7.6,79.7,7.5,80,7.4,80.1z M36.2,56.1c-0.5,1.3-2.6,1.4-4,1
	c-0.1-0.5,1.1-1.4,1.5-1.4c0.8,0,3-0.5,3.1,0.6C36.5,56.6,36.5,56.1,36.2,56.1z M35.9,57.3c0.3,0.1,0.6,0.6,0.3,0.9
	C35.9,58.1,36,57.7,35.9,57.3z M36,68c-0.2,0-0.2-0.1-0.5-0.1c0-0.8,0-1.6,0.3-2.1C36.2,66.2,36.1,67.4,36,68z M32.1,70.3
	c-0.2-0.4,0.1-0.8,0.7-0.8c-0.1-0.6-0.7-0.4-1-0.9c-0.5-0.9-0.2-2.4-0.8-3.3c2.5-0.3,2.5,2.5,2.6,4.7c-0.4,0.2-0.5-0.1-0.8-0.2
	C32.4,69.8,32.6,70.3,32.1,70.3z M32.9,71.9c0,0.3-0.6,0.1-0.7,0C32.3,71.6,32.8,71.6,32.9,71.9z M29,70.7c0.1,0.4,0,0.6-0.3,1
	c-0.2,0.2-0.4,0.5-0.6,0.9c-0.4,0.9-3,3.4-6.3,3.6c-2.7,0.2-5-1.2-5.7-1.7c3.2-2.3,9.1-6.5,10.1-7c0.2,0.1,0.7,0.3,1.3,0.6
	c0.6,0.3,1.5,0.4,1.9,0.5C29.3,69,28.9,70,29,70.7z M12.9,67.5c-0.8-0.3-2.2-0.9-2.3-1.6c-0.2-1.5,2.3-0.9,2.3,0.6
	c-0.2,0.1-0.5,0.1-0.6,0.3C12.1,67.6,12.9,66.9,12.9,67.5z M13.2,52.4c0.3,0.2,0.6,0.5,0.6,1h-0.6C13.3,53,13,52.6,13.2,52.4z
	 M14,55.3c1-1,1.8-1.4,3.2-2.1c0.5-0.2,1-0.5,1.5-0.7c0.9-0.4,1.7-0.8,2.4-1.1c0.6,0.6,3.2,3.5,4.3,5.6c1,1.9,1.8,3.3,2.1,3.8
	c-0.3,0.1-0.7,0.4-1.1,0.8c-0.3-0.1-1-0.2-1.8-0.2c-0.3,0-0.6-0.1-0.9-0.3c-0.5-0.2-1.1-0.5-2.2-0.4c-1,0.1-1.6,0.2-2.1,0.3
	c-0.4,0.1-0.7,0.1-1,0.1c-0.7,0-1.9,0-2.6,0.9c-0.2,0.3-0.6,0.3-1,0.4c-0.6,0.1-1.2,0.2-1.7,0.8c-0.5,0.7-1,0.5-1.2,0.4
	c-0.1-0.3-0.4-1.5-0.9-3.3c-0.4-1.5-0.7-2.2-0.8-2.6c0.5-0.2,1.5-0.7,1.8-1.5c0.1-0.3,0.2-0.3,0.4-0.3C13,55.9,13.5,55.9,14,55.3z
	 M27.8,64.6c0.4,0,0.2,0.4,0.6,0.5c0.3,0,0.2-0.4,0.3-0.6c0.2,0.1,0.4,0.3,0.8,0.2c0,0.3-0.2,0.2-0.1,0.6C29,64.5,28,65.4,27.9,66
	c-0.8,0-1.1-0.5-1.5-0.8c-0.9,0.5-2.2-0.2-3-0.6c0.3-1.7,4.6-1.7,4,0.6C27.8,65.3,27.5,64.6,27.8,64.6z M25.7,67.2h-0.3
	c-0.3-0.3,0-0.7,0.1-0.9h0.3C25.6,66.7,25.9,66.9,25.7,67.2z M24,66.4c-0.6,0.6-1.9,0.1-2.6-0.1c0.2-1.4,3.7-1.3,3.8,0.1
	c-0.7-0.3-0.6,0.2-0.9,0.6C23.8,67.1,24,66.6,24,66.4z M19.6,67.3c0.8,0.1,0.7-0.7,1.5-0.6c0.1,0.4,0.1,0.2,0,0.6
	c0.8-0.6,1.6-0.1,1.6,0.9c-0.2,0.1-0.3,0.3-0.7,0.2V68C21.3,68.4,20.2,67.8,19.6,67.3z M15.7,65c-0.7-0.3-1.4-0.8-1.7-1.5
	c0.7-0.8,3.2-0.5,2.5,1.1c-0.4,0.1-0.1-0.5-0.3-0.6C15.5,64.2,15.9,64.6,15.7,65z M14.6,66.6c-0.2-0.2,0-0.6,0.3-0.6
	C14.9,66.4,14.9,66.7,14.6,66.6z M16.5,62.8c-0.4-1.2,3-1.3,1.8,0.5C17.5,63.3,16.7,63.3,16.5,62.8z M19.4,68.1
	c-0.3,1.1-1.3,0.9-2.1,0.8v-0.3C17.9,69,18.5,68.3,19.4,68.1z M19.1,67C19.1,67.1,19.2,67.1,19.1,67c-0.1,0.1-0.1,0.1-0.2,0.2
	L19.1,67z M18.9,61.9c0.8-1,3.2-0.1,2.5,1.3c-0.7-0.2-0.5-0.9-1-1.1C20,61.9,19.2,62.8,18.9,61.9z M20.8,68.9
	c-0.7-0.1-0.8,0.3-1.3,0.5c-0.1-0.1-0.2-0.2-0.3-0.2C19.3,68.7,20.7,67.8,20.8,68.9z M22,61.1c0.5,0,0.9,0.1,1.2,0.2
	C22.7,61.2,22.4,61.2,22,61.1z M23.1,61.8C22.3,63.6,21.3,61.1,23.1,61.8L23.1,61.8z M24.3,63.1c-0.4-0.6,0.7-1.5,1.1-0.9
	C25.2,62.5,24.3,62.4,24.3,63.1z M10.9,64.6c-0.6-0.7-0.3-1.9-0.5-2.8c-0.3-1.9-1-3.6-1.6-5c0.8-0.1,0.7,1,1,1.8
	C10.4,60.2,11.5,62.4,10.9,64.6z M11.7,68.2c-0.8-0.4-1.7,0.6-2.4,0C9,68,8.8,66.8,9,66.5C9.5,65.4,11.8,67.1,11.7,68.2z M12.3,64.4
	c1-0.9,2.8,0.2,1.9,1.5C13.2,65.8,12.8,65.1,12.3,64.4z M13.1,69.9c0.6-0.3,1.3-0.6,1.9-1.2c0.1-0.1,0.3-0.3,0.4-0.4
	c0.3-0.3,0.4-0.5,1-0.5c0.4,0,1-0.2,1.5-0.3l-4.4,3.2C13.2,70.4,13,70.1,13.1,69.9C13,70,13,69.9,13.1,69.9z M16.4,70.3
	c-0.3,0.3-0.6,0-0.8-0.1C15.7,69.6,16.5,69.6,16.4,70.3z M26.1,63c0.6-1.6,2.7-0.3,3.9-0.2c0.2,0.4,0,0.7-0.1,1.1
	C28.5,63.8,27.2,63.6,26.1,63z M27.9,61.5c1.1-1,5-0.9,4.1,1.4c-0.2-0.3,0-0.5-0.6-0.3c0-0.3-0.2-0.3-0.1-0.7
	C30.6,62.8,28.4,62.1,27.9,61.5z M30.2,65.5c0.8,0.3,1.1,1.5,0.9,2.4c-0.2-0.2-0.4,0.1-0.8,0C30.1,66.9,29.3,66.3,30.2,65.5z
	 M31.1,68.1c0.2,0.3,0.1,1.1-0.3,1C30.5,68.7,31,68.5,31.1,68.1z M32.9,60.2c-0.4,0-0.3,0.6-0.6,0.8c-0.6-0.7-2.5-0.1-2.8-1.1
	c1.1-0.4,4-1.5,3.8,0.9C32.9,60.9,33.2,60.3,32.9,60.2z M31.1,58.8c0.4-1.3,4.3-2,3.9,0.1C34.3,58.4,32.4,59.4,31.1,58.8z
	 M35.2,60.2c0,0.2-0.3,0.2-0.3,0.5c-0.2,0-0.3-0.2-0.2-0.5H35.2z M35.2,65c0.3,0,0.3,0.5,0.1,0.7C35.1,65.6,35,65.2,35.2,65z
	 M37.5,54c0.3,0,0.4,0.2,0.3,0.5C37.5,54.5,37.3,54.2,37.5,54z M38.1,49c-0.1,0.5,0.2,0.6,0.1,1c-0.4,0-0.5-0.1-0.8-0.2
	c-0.3,0.5,0.8,0.4,0.7,1.1c-0.3-0.1-0.6-0.3-0.8-0.1c0,0.7-2.5,2.7-2.6,1C34.6,51.1,36.4,48.7,38.1,49z M34.4,48.3
	c0.2-0.2,0.6-0.2,0.5-0.7c0.2,0.1,0.5,0.4,0.8,0.1c-0.1-0.4-0.4-0.4-0.5-0.8c0.8,0.2,1.5,1,1.5,1.6c-0.1,0.7-1.6,1.9-2.4,1.6
	c0.2-0.4,0.2-1,0.6-1.3C34.8,48.5,34.6,48.4,34.4,48.3z M37,52.1c0.6,0,1,0.4,0.9,0.8c-0.2,1-2.5,0.3-3.2,1c0.4,0.6,1.3,0,2.1,0.1
	c0.2,0.5,0.6,0.8,0.7,1.4c-0.8-0.5-1.8-0.1-3.4-0.2c-0.2-0.7-0.2-1.4,0.1-1.8C34.4,53.1,36.6,52,37,52.1z M33.3,51.2
	c0.6,0.1,0.8,0.9,0.8,1.3c-0.3,0.1-0.4,0.4-0.6,0.6c-0.4-0.7-1.1-1.7-1.6-2.3C32.4,50.9,32.9,51.1,33.3,51.2z M27,22
	c-0.3-1.2-1.7-2.6-4.4-2.7c-2.4-0.1-4.7,1-5.2,2.5c-0.3,1-0.5,2.1-0.5,2.7l0,0c0,0-1.2-0.7-2.3-2.7c-1-1.8-1.1-6.2,1-8.6
	c1.8-2,4-3,6.3-3c1.3,0,2.6,0.3,3.9,0.9c4.2,1.9,4.6,7.1,3.9,10c-0.6,2.4-1.9,2.9-2.4,3C27.3,23.7,27.3,22.9,27,22z M27.3,29.4
	c0.5-1,2.3-0.6,3.2-1.4C30.1,29,28.4,29.8,27.3,29.4z M31.9,30.2c-0.6-0.1-0.4-0.9-0.9-1c-0.1-0.6,0.5-0.7,0.8-0.5
	c0.1,0.4-0.2,0.4-0.2,0.6c0.1,0.2,0.4,0.2,0.6,0.3C32.1,29.9,31.9,30,31.9,30.2z M31.6,28.3c0-0.4,0.7-0.2,0.7,0.1
	C32.1,28.5,32,28.3,31.6,28.3z M33.4,28.8c0-0.3-0.2-0.4-0.1-0.8c-0.5,0.1-0.8-0.1-1-0.2c0.3-1.6,1.3,0.2,1.8,0.5
	C34.1,28.7,33.8,28.9,33.4,28.8z M35.8,27.2c0.1-0.4-0.1-0.7-0.2-0.9c-2.8,0.7-0.9-2.6,0.1-0.2c0.4,0.1,0.6-0.4,0.9-0.1
	C36.4,26.4,36.4,27.1,35.8,27.2z M37.6,23.5c-1.2-0.2-1.3,0-2.4-0.3c0.2-1.5,1.7-0.1,2.5-0.8C38.1,22.8,37.8,23.2,37.6,23.5z
	 M36.1,18.3c-0.9-1.3,1.7-1.5,2.4-1C38.6,18.9,37.1,17.8,36.1,18.3z M37.6,19.1c0,0.8-0.7,0.5-1.1,0.3
	C36.5,18.8,37.1,18.8,37.6,19.1z M36.2,21.8c0-0.3,0.6-0.1,0.7,0C36.7,22.2,36.6,21.9,36.2,21.8z M38.9,20.8c-0.8,0-1.6,0.3-2.6,0.2
	c-0.1-0.3-0.2-0.4-0.2-0.8c0.6-0.4,1.7-0.3,2.8-0.3C38.9,20,38.9,20.5,38.9,20.8z M39.3,17.8c-0.5,0.1-0.6-0.5-0.3-0.8
	C39.4,16.9,39.3,17.4,39.3,17.8z M39.1,14.7c-0.5,0-0.3-0.6-0.5-0.9C39,13.9,38.9,14.4,39.1,14.7z M38.5,16c0.1,0.8-0.7,0.7-1.3,0.6
	c0-0.3,0-0.4,0.1-0.6C37.8,16.5,37.9,16.1,38.5,16z M38.3,15.1c-0.2,0.7-1.8,0.4-2.3,0.5C36,14.1,38.8,13.5,38.3,15.1z M37.7,12.1
	c-0.1,0.5-0.9,0.5-1.1,1c-0.4-0.3-1.2-0.1-1.7-0.3C34.9,11.5,38.1,10.3,37.7,12.1z M36.5,8.8c-0.1,0.5,0.3,0.5,0.2,1
	c-1.1,0.2-2.3,1.1-3.4,0.6c1.1-0.6,2.5-2.8,3.9-1.7C37,9,36.9,8.7,36.5,8.8z M33.9,12.5c-0.4,0-0.6-0.4-0.6-0.8
	C33.8,11.8,33.8,12.2,33.9,12.5z M34.6,6.2c0.3,0,0.2-0.4,0.3-0.6c0.7,0.3,2,0.5,1.6,1.6c-0.2-0.1-0.3-0.3-0.5-0.5
	c-0.3,0.3-0.7,0.5-1.1,0.6c-0.1,0.4,0.2,0.4,0.1,0.8c-0.7-0.6-2.2-0.2-2.2,0.9c-3.3-0.2,1.1-2.3,1.3-3.3C34.6,5.8,34.2,6.2,34.6,6.2
	z M33.5,5.4c0.7,0,0.4,0.8-0.1,0.8C33.1,6,33.3,5.6,33.5,5.4z M33.1,4.4c0.3-0.1,0-0.7,0.2-0.8c0.4,0.2,0.7,0.4,0.8,0.9
	c-1.7-0.2-1.9,2.1-3.1,2.4c-0.6,0.2-0.9-0.5-1.7-0.1c-0.1-0.3,0.1-0.4,0.1-0.7c1.4,0.2,2-1.3,3-1.9C32.8,4.1,32.7,4.5,33.1,4.4z
	 M28.2,4.7c1.4-0.6,2.2-1.7,4.1-1.6c0.2,1.1-1.2,0.9-1.3,1.5c-1.3-0.4-2,0.9-2.9,0.7V4.7z M26,3.9c0-0.4-0.1-0.9,0.5-0.8
	C26.4,3.5,26.5,4,26,3.9z M11.6,2.2c1.5-0.1,1.9,1.8,3.3,2.2c-0.2,0.5,2.3,2.2,0.3,2.1c0,0-1.1-0.6-1.3-0.8c-0.1-0.1,0.1-0.3,0-0.3
	c-0.5-0.4-0.4-0.3-0.8-1c-0.4-0.9-0.9-1.7-1.6-1.3V2.2z M11.3,3.5c0.4,0,0.2,0.4,0.3,0.7c0.2,0.5,0.5,0.3,0.9,0.8
	c0.1,0.1,0,0.5,0.1,0.6c0.5,0.5,1.8,1,1,1.9C12.5,7,9.1,5.1,11.3,3.5z M9.4,5.5c0.6,0.1,1,1.2,1.6,1.7c0.4,0.4,1.4,0.6,1.5,1
	c0.1,0.6-0.3,1.4-1.1,0.9c-0.2-0.1-0.2-0.5-0.5-0.8C10,7.2,8.7,6.7,9.4,5.5z M7.6,7.7C8,7.5,10.6,9,10.4,9.7c1-0.1,1.1,1,0.5,1.4
	c-0.4,0.2-0.4-0.4-0.7-0.6c-0.1-0.1-0.4,0.1-0.5,0C9.7,10.4,9.7,10,9.5,9.9C9.3,9.8,8.7,9.6,8.4,9.4C8,9.2,6.6,8.3,7.6,7.7z M6,9.9
	C6,9.9,6.1,9.8,6.2,9.8c0.1-0.1,0.2-0.1,0.3-0.1c0.5-0.1,0.8,0.6,1.3,0.9c0.1,0.1,0.4-0.1,0.6,0c0.7,0.2,2.1,1.3,2.1,1.4
	c0.1,0.5-0.7,0.7-0.7,1c-1.5-0.3-2.2-2.1-3.9-1.9C5.7,10.6,5.8,10.2,6,9.9z M5.2,12.3c0.7,0.3,1.2,0.4,1.9,0.5
	c0.1,0.2,0.2,0.4,0.3,0.6c0.6,0,1.9,0.4,1.6,1.3c-0.6-0.5-1.5,0.1-1.8,0c-0.3-0.1-0.7-0.7-1.1-0.9c-0.6-0.3-0.7-0.2-1.3-0.1
	C4.8,13,4.9,12.5,5.2,12.3z M8.8,16.2C8,15.8,4.9,17,5.2,15.6c0.3-0.5,2.2,0.1,2.8-0.1c0,0,0.1-0.4,0.1-0.3
	C8.4,15.2,8.9,15.8,8.8,16.2z M4.6,15.2c0.8,0,0.4,0.9-0.1,0.9C4.4,15.8,4.5,15.5,4.6,15.2z M4.6,17.3c0.4-0.2,1-0.1,1-0.7
	c0.2,0.2,0.2,0.5,0.3,0.7c0.2-0.1,0.3-0.3,0.3-0.6c0.5,0.2,0.6,0.7,1.1,0.2c0.2,0.1,0.1,0.5,0.2,0.7c0.5,0,0.7-0.2,1.1-0.2
	c0,0.5,0.2,0.5,0,0.9c-1.4-0.1-2.6,0.3-4,0.1C4.6,18.2,4.7,18,4.6,17.3z M5.3,23.2v-0.5C5.7,22.6,5.7,23.3,5.3,23.2z M6,21.6
	C5.7,21,5.1,20.9,5.2,20c1.7-0.2,2.2-0.7,3.7-0.5c0.3,0.4,0,1-0.1,1.4c-1-0.8-1.6,1-2.4,0.3C6.1,21.2,6,21.3,6,21.6z M6.1,23
	C7,22.8,8,22.5,8.6,21.8c0.4-0.5,0.9,0.9,1,1.4C8.9,23.9,6.3,24.4,6.1,23z M7.7,26.2C7.6,24.6,9.3,26.4,7.7,26.2L7.7,26.2z
	 M10.7,25.8c-0.9,0.2-1.2-0.3-2.2-0.5C9.2,24.4,10.6,24.2,10.7,25.8z M9.5,28.6c-0.2-0.3-0.5-0.5-0.8-0.7C8.8,27,9.8,27.7,9.5,28.6z
	 M9.6,26.9c1.1-1.2,2.1-0.2,1.3,1.1C10.3,27.8,9.6,27.7,9.6,26.9z M10.7,29.1c0.3-0.3,0.8,0.1,0.7,0.6
	C10.8,29.9,11.1,29.2,10.7,29.1z M12.6,30.3c0.8-0.6,0.9-1.5,0.1-1.7c-0.3-0.1-1.7,0.9-1.6-0.3c0-0.4,0.6-0.9,1-0.8
	c0.4,0,1.8,2.1,1.8,2.1C14.2,30.4,13.4,31,12.6,30.3z M15.5,31.6c-0.1,0.2-0.5,0.1-0.7,0.2c0,0.4,0.3,0.4,0.2,0.9
	c-0.4-0.1-0.6-0.3-0.8-0.6c0.4-0.6,0.4-1.7,1-2.1c-0.1-0.3-0.6-0.2-0.6-0.7c0.4,0,0.7,0,1,0.1C15.1,30,15.9,30.7,15.5,31.6z
	 M13.1,27.3c-0.3-0.4-0.2-1-0.3-1.3c-0.3-0.5-0.8-0.5-1.3-1c-0.8-1.1-2.3-5.2-2.1-7.8c0.1-0.6,0.5-0.9,0.6-1.4c0.1-0.4,0-0.8,0-1.1
	c0.2-1.2,1.1-2,1.6-3c0.3-0.8,0.4-1.3,1.1-2.1c0.7-0.8,1.8-1.6,2.9-2.1c0.4-0.2,1-0.1,1.5-0.2c0.6-0.2,1-0.7,1.5-0.9
	C19.3,6.2,20.5,6,21.1,6c1.4-0.1,3,0.8,4.4,0.9C26.2,7,27,7,27.8,7.4c0.8,0.4,2.6,1.7,3.3,2.5c0.4,0.4,0.7,1.1,1,1.8
	c0.9,1.7,2,3.1,2.3,5.5c0.2,2.1-0.4,4-1.1,6.1c0.6-0.1,0.3-1,1-0.9c0.2,1.3-1.1,1.9-1.4,3.1c-0.7-0.1-0.8,0.3-1,0.7
	c-0.1,0-0.1,0-0.1-0.1c0.3-1,1.4-1.3,1.3-2.4c-1.1,1.3-1.8,3.1-3.6,3.8c-0.1,0.4,0.2,0.3,0.1,0.7c-1.8,1-1.7-1.3-0.6-1.7
	c-0.7-0.4,0-1.3,0.3-1.6c0.1-0.2-0.2-0.2-0.3-0.2c0.7-2,1.8-4.3,1.5-7.4c-0.1-1.1-0.7-1.9-0.7-3.4c0.5,0.4,0.5,1.4,1,1.7
	c-0.3-1.3-0.9-2.2-1.4-3.2c0.6,0.2,0.9,0.8,1.3,1.3c0.1-1.2-1.2-2.1-2.1-2.8c-0.3,0.4,0.5,0.6,0.6,1c-0.4,0-1.7-0.9-1.1-1.6
	c-0.4-0.4-0.7-0.9-1.5-0.7c-0.2,0-0.5,0.5-0.6,0.5c-0.7,0-1.6-0.8-2.5-0.9c-0.5,0-1.2,0.1-1.7,0.1C21,9.2,20,9.8,19.4,9
	c1.9-0.4,4.6-0.4,6.4,0.2c-1.1-1.1-3.6-1.2-5.4-0.9c-0.5,0.1-0.8,0.5-1.1,0.6c-1.1,0.3-2,0.4-2.9,0.9c-1.7,1.1-2.5,2.5-3.7,4
	c-0.3-1,0.7-2.4,1.4-3.1c1.2-1.2,4-2.9,6.1-3.2c0.6-0.1,1.2-0.1,1.7-0.1c3.9,0.3,7.4,1.8,9.1,4.7c-1.2-4.9-10.3-6.5-15.1-3.8
	c0.2,0.3,0.8-0.1,1.1-0.1c-0.7,1-1.7,1-2.5,1.7c-2.2,1.9-2.7,5.1-3.8,8.1c-0.1-3.6,1.7-5.3,2.6-7.9c-1.3,1.3-1.7,3-2.3,4.6
	c-0.2,0.5-0.7,1.1-0.8,1.7c-0.2,1.3,0.5,2.3,0.7,3.7c0,0.1-0.2,0.4-0.1,0.6c0.4,1.4,1.3,2.6,2.2,3.7c-0.1-1.4-1.8-2.7-1.9-4.5
	c-0.1-1.3,0.6-2.6,0.8-4c0.5,0.4,0,1.1,0,1.6c-0.1,3.5,1.5,6.3,3.6,7.9c1.3-0.7,1.3,0.2,1.1,1.5c-0.1,1.2,0.1,1.9-0.3,2.2
	C15.5,29.4,13.4,27.8,13.1,27.3z M12.3,14.9c-0.3-0.3,0.2-0.6,0.2-0.9c0.2,0,0.2,0.1,0.3,0.1C13,14.8,12.5,14.7,12.3,14.9z
	 M18.5,41.2c-0.8-4.8-1-10.9-0.3-15.8c-0.7,0.2-0.4,1-0.5,1.5c-0.4,2.5-0.4,5.5-0.8,8.1c-0.7-1.2-0.2-4.8,0-7.2
	c0.1-1.2,0.8-3.5,0.9-4.7c0.1-0.5,0.1-0.9,0.1-1.2c0.2-0.6,0.9-1.2,1.8-1.6c0.5-0.1,1.1-0.2,1.6-0.2c3.1,0.3,6.2,1.7,4.7,5
	c-0.7-0.3-0.1-1.9-0.6-2.5c-0.7,1.3,0,3.6,0,5.5c0,2.1-0.5,4.3-0.6,6.3c0,1.7-0.1,3.2-0.5,4.7c-0.6-4.3,0.2-8.4,0.5-13.1
	c-0.7,0.4-0.2,0.9-0.3,1.4c-0.5,2.8-0.6,6.9-0.8,10.3c-0.1,3-0.4,5.2,1.1,7.3c0.2-1.5-1.5-3.6-0.3-5c0.5,0.8,0,2,0.1,2.6
	c0,0.3,0.6,0,0.7,0.2c0.2,1.4,0.7,2.4,1.3,3.4c0.9,1.8,2.2,3.3,3.4,4.9c0.6,0.7,1,1.5,1.7,2.1c-1.4-2.7-4-5-5.2-8.3
	c0.7,0.2,0.8,0.9,1.1,1.4c0.5,0.6,0.9,1.4,1.5,2.2c0.4,0.6,1.1,0.9,1.6,1.5c0.4,0.4,0.7,1.1,1.1,1.6c0.9,1,1.4,1.7,1.4,3.2
	c-0.8-0.2-0.8-1.3-1.5-1.6c-0.1,1,1.2,1.4,1.1,2.2c0,0.4-0.6,0.6-1,1.3c-0.2,0.4-0.2,0.9-0.3,1c-0.1,0.2-0.8,0.4-1.1,0.8
	c-0.5,0.5-1.6,2-2.4,1.6c-0.4-0.2-0.6-1.5-1-2.3c-1.8-3.5-5.4-6.5-7.2-10.5c-0.7-1.5-1.1-2.8-1.1-4.8c1,1,0.9,3.1,1.6,4.4
	c0.4-1.6-0.8-3.3-0.9-5.2c0-0.4,0.2-0.6,0.2-1c0.1-1.5-1-4.3-0.7-6.1c0.1-0.4,0.4-0.7,0.5-1c0.3-2.2-0.2-4.7-0.1-6.9
	c-0.8,1.9,0.1,3.8-0.2,6c-0.1,0.7-0.6,1.3-0.6,2.3C18.3,36.9,18.9,39.2,18.5,41.2z M25.5,41.4c-0.4-0.1-0.5-0.2-0.3-0.6
	C25.5,40.8,25.5,41.1,25.5,41.4z M18.6,48.1c1.1,1.2-1.3,2-1.1,0.3C17.8,48.3,18.2,48.2,18.6,48.1z M15.2,49.5
	c0.3,0,0.5-0.1,0.6-0.1c0.6-0.1,1.2,0,1.6,0.3c-0.3,0.5-0.8,0.6-0.8,1.4c-0.6-0.4-2-0.3-2.1-0.9C14.6,49.9,14.8,49.6,15.2,49.5z
	 M13.8,50.8L13.8,50.8L13.8,50.8c0.9,0,1.8,0.5,1.6,1.3c-0.5,0.3-0.7-0.3-1-0.5c-0.6,0.3-1.4,0.2-1.8-0.2
	C12.8,51,13.3,50.8,13.8,50.8z M12.9,52.3c-0.4,0.5,0,1-0.1,1.4c-0.4,0-0.5-0.5-0.7-0.7c-0.3,0.4-1.7,1-2.1,0.7
	C8.9,52.9,11.4,51.4,12.9,52.3z M10.3,54.9c-0.4,0.1-0.5,0.2-0.8-0.1c-0.2,0,0,0.5-0.2,0.6C6.8,54.6,10.9,52.8,10.3,54.9z M3.1,53.1
	c-0.3-0.3-1.2-0.4-1.5-0.8c0-0.1-0.1-0.1-0.1-0.2c0-0.1,0-0.3,0-0.5c0.2-0.5,2.1-0.4,2.4-0.3c2.2,0.5,3.6,2.8,4.7,4.4
	c-0.7,0.2-1-0.9-1.5-1.4c0.4,1.6,1.9,3,2.2,5c0,0.5-0.2-0.1-0.5,0c-0.1,1,0.2,3,0.6,4.2c0.2-0.7-0.2-1.3,0-2.3
	c0.4,1,1.2,2.7,0.5,3.8c-0.4-0.1-0.5-0.6-0.5-1.1C9.5,65.7,8.8,66.4,7,66C6.7,61,6,55.4,3.1,53.1z M5.6,65.9
	c-0.2-0.1-0.4-0.2-0.8-0.6C4.5,65,5,63.7,5.5,62.8C5.6,64,5.7,65.4,5.6,65.9z M4.9,56.7c0.2,0,0.4,0.2,0.4,0.5
	c-0.1,0.1-0.5,0.2-0.7,0.1C4.7,57.1,4.8,56.9,4.9,56.7z M2.2,66.5C1.9,66.5,2,67,1.7,67c-0.5-0.3-1.1-2-0.9-3
	c0.1-0.4,0.6-0.6,0.7-0.9C1.9,62,1.8,60.7,3,60.5c-0.9-1.1,0.7-2.1,1.7-2.4v1.3C3.8,59,4,60.2,3.1,60.2c0.3,0.8,0,1.1-0.2,1.8
	c-0.3,0.1-0.5,0.3-0.9,0.2C2.1,63.1,3,63.1,3.1,64c-0.7,0.3-1.2,0.9-1.7,1.4c0.7-0.1,1.1-0.7,1.9-0.7c0,0.3,0.2,0.2,0.1,0.6
	c-0.4,0.2-0.6-0.1-0.9,0.1c0.1,0.3,0.5,0.3,0.6,0.6c-0.1,0.6-0.5,0.8-0.6,1.4C2.3,67.2,2.4,66.7,2.2,66.5z M4.4,62
	C5,62.5,4,63,4.4,62L4.4,62z M6.7,69.8c-0.1,0.5-0.5-0.5-0.8-0.6c-0.6,0.1,0.2,0.8-0.2,1c-1.3-0.6-0.6-2.6-0.8-3.5
	c-0.3,0.6-0.6,1.3-0.7,2.2c-0.7-0.1-0.9-0.6-1.5-0.8C3,67.7,3,66.8,3.2,66.4c1.1-1.5,1.8,0.4,3.4,0.5C6.4,67.7,6.7,69.3,6.7,69.8z
	 M7.9,66.6c1,0.2,0.7,2.2,1.4,3c-0.5,0.4-0.9-0.4-1.4-0.5c-0.2,0,0,0.5,0.1,0.6C7.1,70.4,6.2,66.3,7.9,66.6z M8.5,70.2
	c-0.1,0.5-0.6,0.4-1,0.2c0.1-0.1,0.1-0.2,0.1-0.3C7.8,70.3,8.2,69.8,8.5,70.2z M13.5,80.4c-1.1-0.5-2-0.6-2.9-1.6
	c-0.5-0.5-0.8-1.4-1.3-1.9c-0.6-0.7-2.1-1.9-1.9-3c0.6,1,1.1,1.7,1.8,2.6c0.6,0.8,1.6,1.3,2.4,1.9c0.3,0.3,0.4,0.7,0.7,0.9
	C12.8,79.6,13.7,79.5,13.5,80.4z M16.2,82.4v-0.7c0.6,0.2,1.5,0.2,2.1,0.5C17.7,82.4,17,82.4,16.2,82.4z M19.2,82.2
	c0.6,0,1.1,0,1.6,0.1C20.6,82.7,19.2,82.7,19.2,82.2z M22,82.3c-0.1-0.7,1.9-0.9,2.5-0.8C23.9,82,22.8,82,22,82.3z M28.8,80.5
	c0.1-0.4,0.6-0.7,0.9-0.5C29.7,80.5,29.1,80.4,28.8,80.5z M27.5,80.1c0.5-1,1.9-1.1,2.3-2.2c-0.9-0.1-1.2,1-1.9,1.4
	c-0.4,0.2-0.8,0.2-1.3,0.3c-1.9,0.8-3.7,1.9-6.3,1.8c-0.9,0-2.3-0.1-3.1-0.3c-0.3-0.1-0.7-0.5-1.1-0.7c-0.4-0.1-0.9,0-1.3-0.1
	c-0.6-0.2-2.5-1.8-3.2-2.3c-0.3-0.2-0.9-0.7-1.1-0.9c-0.7-0.6-2.5-2.8-2.2-3.9c0.3-1,1.8-1.2,2.9-1.3c0.8,0.6,0.7,2.1,1.7,2.5
	c0.2-1.3-1.3-1.5-0.9-2.6c1,1.1,1.4,2.8,2.8,3.7c0.5,0-0.1-0.6,0.2-0.7c2.2,1.3,5.3,2.6,8.5,2.1c2.3-0.4,3.9-2.4,5-3.8
	c0.6-0.7,1.8-2.4,2.6-0.3c0.4-0.1,0.7,0,0.9,0.2c0.2,0.5-0.4,0.4-0.6,0.8c-0.1,0.3,0.1,0.5,0,0.8c-0.2,0.5-0.6,0.4-1,0.9
	C30,76,29.9,76.8,29.6,77c-0.2,0.2-0.6,0.3-0.9,0.5c-2.2,1.5-5.1,3.1-8.7,2.9c-1-0.1-1.9-0.7-3-0.8c-1-0.1-2.2-0.3-3.1-0.9
	c0.2,1.2,1.7,1.3,3.1,1.5c0.8,0.1,1.6,0.6,2.3,0.7c3.8,0.5,7.8-1.4,10-3.1c1.4-1.1,2-2.8,3.3-3.9c0.3,1-0.5,1.7-0.9,2.3
	c0.5,0.2,0.6-1,1.4-0.9C31.7,77.4,30,79.2,27.5,80.1z M32.7,70.7c0.1-0.3,0.9-0.6,1-0.1C33.7,71.2,33,70.9,32.7,70.7z M33.4,65.2
	c-0.1-0.4,0-1.1,0.7-1C34,64.7,33.9,65.3,33.4,65.2z M35.3,71.7c-0.5-0.2-0.7,0.1-1.1-0.1c0-0.4,0.3-0.4,0.6-0.6
	c-0.1-0.2-0.3-0.2-0.6-0.2c-0.1-1.3-0.3-2.6-0.3-4c0.8,0,0.8,0.8,1.4,1C35.2,68.7,36,70.4,35.3,71.7z M37,73.7c0.3,0,0.4,0,0.6,0.1
	C37.6,74.1,36.8,74.2,37,73.7z M36.3,72.9c-0.1-0.4,0.5-0.1,0.5-0.5c0-0.3-0.5-0.1-0.7-0.3c-0.3-1.1-0.4-2.3-0.2-3.3
	C37.7,68.8,38.9,73.8,36.3,72.9z M38.9,74.9c-0.1-0.4,0.2-0.4,0.2-0.6c-0.2-0.2-0.6-0.3-0.9-0.5c-0.2-0.9,0-2.1-0.1-3.3
	c1.1-0.3,1.9,1.2,1.9,2.6C40,74.2,40,75.1,38.9,74.9z M41.6,77.5c-0.2-0.4,0.2-1.1-0.7-0.9c-0.2-0.4,0.3-0.2,0.2-0.6
	c0-0.3-0.6,0-0.7-0.2c-0.2-1.1-0.1-2.8,0-3.6c0.7,0,1.7,1.1,1.8,2.1C42.5,75.4,42.4,77.1,41.6,77.5z M43.2,79.3
	c0.2-0.3,1.2-0.5,1.1,0.1C44,79.9,43.6,79.5,43.2,79.3z M43.1,78.4c-0.5-1.6-0.6-3.1-0.3-4.7c1.8,0.4,1.7,2.7,1.7,4.4
	C44.1,78.2,43.5,78.2,43.1,78.4z M46.7,79.9c-2,1.1-2-2.4-1.6-3.8C46.6,75.9,46.8,78.1,46.7,79.9z M48.5,82.3
	c-0.6,0-0.1-0.5-0.5-0.7c-0.4,0-0.5,0.2-0.9,0.1c0.1-1.2-0.1-2.5,0.1-3.7C48.9,78.5,49.3,80.6,48.5,82.3z M50.6,84.5
	c-0.2-0.4-0.8-0.5-1.3-0.7c0.2-0.8-0.6-3,0.2-3.3C50.9,79.9,51,83.5,50.6,84.5z M51.9,82.2c0.1,0.1,0.2,0.1,0.4,0.2
	c-0.1,0-0.1,0-0.2,0C52.1,82.4,52,82.3,51.9,82.2C51.9,82.2,51.9,82.2,51.9,82.2z M51.8,87.1c0-0.4,0.9-0.3,0.7,0.2
	C52.1,87.5,52,87.2,51.8,87.1z M51.6,86.4c0.5-0.5-0.4-0.7-0.5-1.1c-0.1-0.8,0.2-1.6,0.2-2.5C53.3,82.4,53.5,86.8,51.6,86.4z
	 M54.3,88.7c-1.4-0.5-1.3-2.3-0.9-3.9C55.4,84.8,54.8,87.6,54.3,88.7z M57.2,90.6c-0.4-0.3-0.3-1.6,0.1-1.8
	C58.2,89,57.5,90.1,57.2,90.6z M30.4,53.3c0.2,0.8,0.6,2.4,1.5,3C31.7,55,31.2,54,30.4,53.3z M22.6,36.1c-0.4,0.7,0,1.6,0,2.3
	c-0.1,2.3-0.7,4.6,0.8,6.5c0-2.9-0.6-5.6-0.6-8.7C22.8,36.2,22.7,36.1,22.6,36.1z M23.9,25.6h-0.3c-0.1,0.6-0.1,1.9,0.2,2.4
	C23.9,27.3,24.3,26.3,23.9,25.6z M22.7,35.9c0.7-0.8-0.3-1.7-0.3-2.3c-0.1-0.5,0.2-1,0.2-1.5c0.1-1.6,0.1-3.4,0.1-4.9
	c-0.1,0-0.2-0.1-0.3-0.1c-0.2,2.8-0.1,5.5-0.3,8.5C22.5,35.2,22.4,35.8,22.7,35.9z M20.9,30.5c0.1-1.1,0.3-2.9-0.2-3
	c-0.1,1.9-0.1,4.1-0.1,6.1C21.1,33.2,20.8,31.7,20.9,30.5z M19.8,42.1c0.1,0.6,0.4,1.4,0.6,2.1c0.2,0.7,0.3,1.4,0.8,1.8
	c0.2-0.9-0.5-1.6-0.6-2.5c-0.1-0.9,0.1-2.1,0.1-2.9c0-1.4-0.6-2.8-0.6-3.6c0-0.3,0.4-0.5,0.3-0.8c0-0.4-0.4-0.7-0.5-1.1
	c-0.1-0.8,0.4-1.6-0.1-2.2c-0.5,1.6-0.1,3.2,0,4.8C20.1,39.2,19.7,40.7,19.8,42.1z M14.5,9.2c-0.5,0.1-1,0.3-1,0.9
	C13.8,9.9,14.3,9.7,14.5,9.2z M22.3,45.3c-0.5-3.7-0.7-7.4-0.7-11.8h-0.3C21.4,37.7,20.3,42.1,22.3,45.3z"/>
</svg>
