<svg xmlns="http://www.w3.org/2000/svg" viewBox="0 0 110.87 85"><title>ship</title><path fill="#eeeeef" fill-rule="evenodd" d="M29.92 6.04c-.37.86-1 1.84-1.35 2.62-.65 1.35-1.4 2.67-2 4-.31.7-.5 1.37-.82 2.07-.11.25-.41.41-.3.73C27.3 11.6 29.38 7.94 31 3.86c-.06 0-.07-.06-.14 0-.35.67-.67 1.42-.94 2.18zM33.1 13.56c-.21.58-1.13.86-.91 1.57.45-.43 1-.76 1.15-1.49-.09-.01-.09-.12-.24-.08zM56.74 15.99c-1.31 1.75-2.62 3.58-3.92 5.28-.2.27-.33.58-.53.84s-.48.43-.66.69-.32.61-.53.88a5.93 5.93 0 0 0-1.14 1.62 6.55 6.55 0 0 0 1.24-1.53c.19-.26.41-.49.62-.74s.32-.59.52-.88.6-.73.88-1.11c1.45-2 3.06-3.8 4.37-5.84a.07.07 0 0 0-.09 0c-.18.3-.58.49-.76.79zM28.72 18.49c-.29.48-1.34.9-.92 1.61.17-.37.6-.49.71-.92.28-.05.41-.23.34-.6-.06-.01-.07-.08-.13-.09zM27.59 21.07c.24-.21.54-.78.44-1a1.51 1.51 0 0 0-.44 1zM26.29 21.82c.35-.49 1.1-.82 1-1.57-.37.34-1.46.9-1 1.57zM24.47 27.38a8.14 8.14 0 0 0-.91 2c.35 0 .38-.46.49-.69s.3-.53.43-.79c.83-1.6 1.48-3.31 2.25-5a6.46 6.46 0 0 0 .82-1.79h-.14c-.96 2.14-1.92 4.29-2.94 6.27zM30.66 21.54a40.61 40.61 0 0 0-1.82 3.82c-.34.72-.84 1.4-1.18 2.12-.11.24-.15.5-.26.74-.28.62-.6 1.24-.9 1.89a3 3 0 0 0-.48 1.24 4.63 4.63 0 0 0 .83-1.66c.1-.23.29-.42.39-.65.52-1.11 1.06-2.25 1.52-3.31a5.21 5.21 0 0 1 .43-.74c.11-.19.16-.44.26-.65.43-.88.88-1.78 1.26-2.71-.02-.04-.01-.09-.05-.09zM25.62 21.93c-.42.46-1.33 1.13-1.1 1.72.35-.37 1.55-1.24 1.32-1.81a.21.21 0 0 0-.22.09zM23 24.96c.17.23.52-.13.81-.43s.56-.64.34-.92A3.52 3.52 0 0 0 23 24.96zM54.59 26.47a14.94 14.94 0 0 0-1.5 2.17 3.22 3.22 0 0 0 .88-1l.84-1.11a10.61 10.61 0 0 0 1.63-2.27h-.18c-.54.77-1.14 1.46-1.67 2.21zM16.61 37.4c-.41.9-.73 1.88-1.11 2.81s-.74 1.9-1.12 2.85c-1.41 3.52-2.78 7.13-4.25 10.52-.1.22-.27.43-.35.65s0 .38-.08.55-.15.3-.21.46c-.95 2.23-1.82 4.49-2.71 6.71s-1.69 4.6-2.61 6.75c-.12.28-.38.59-.25.92 1.21-2.45 2.09-5.08 3.09-7.63 1.11-2.82 2.34-5.59 3.35-8.37.61-1.69 1.25-3.33 2-5 .82-1.85 1.59-3.73 2.32-5.61 1.48-3.78 3-7.53 4.46-11.26 0 0 0-.05-.09-.05-.86 1.87-1.57 3.82-2.44 5.7zM27.01 36.29a5.62 5.62 0 0 0 .82-1.62c.21-.4.66-.76.52-1.2a13.71 13.71 0 0 0-1.34 2.82zM30.92 35.1c.21-.33.75-.93.38-1.38-.03.48-.46 1.04-.38 1.38zM77.92 34.82a6.86 6.86 0 0 0-1-2 4.28 4.28 0 0 0 .67 1.45c.84 1.71 1.64 3.68 2.41 5.4a9.57 9.57 0 0 0 .9 1.71 2.54 2.54 0 0 0-.39-1.18c-.8-1.82-1.72-3.58-2.59-5.38zM30.68 43.12a7.37 7.37 0 0 0 .94-2.31c-.05 0-.06-.05-.13 0-.18.83-.73 1.35-.81 2.31zM35.24 45.28c-.07.37-.7 2 0 2-.04-.69.77-1.74 0-2zM57.4 48.61c-.07.21-.05.49-.17.64-.15-.07-.2-.25-.46-.21-.31.25.43.91.61.85s.32-1 .24-1.24c-.1.02-.09-.08-.22-.04zM78.92 50.82c-.22.62.75.76 1.25.92-.03-.78-.88-.64-1.25-.92zM69.16 66.22c0-.39-.17-.83-.17-1.18 0-.19.12-.41.12-.6a39.07 39.07 0 0 0-.1-4.18c-.08-2.12-.17-4.05-.28-6.14-.06 0-.06-.06-.14 0 0 5.66.34 10.84.57 15.87.24-.32.12-.78.11-1.14-.03-.95-.03-1.82-.11-2.63zM89.15 55.17c-.31.57.71.73 1.11.7-.05-.54-.84-.55-1.11-.7zM81.97 57.62c.36-.47-.86-1.27-1-1.43-.25.22 0 .3 0 .55a9.2 9.2 0 0 0 1 2c.37.76.87 1.62 1.24 2.29s.62 1.12.9 1.67a23.3 23.3 0 0 0 1.72 3.23c-1.22-3-2.84-5.63-4.21-8.5.13.02.09.26.35.19z"/><path fill="#eeeeef" fill-rule="evenodd" d="M82.24 57.66c-.17.57.5 1 .9 1.25.42-.3-.62-1.15-.9-1.25zM85.75 61.49c-.14.65.55 1.14 1 1.48a.63.63 0 0 0 .13-.41 3.35 3.35 0 0 0-1.13-1.07zM75.16 63.98c0 .06-.07.08-.09.14a.55.55 0 0 0 .1.36.81.81 0 0 0-.17.59c0 1 .06 2.27.13 3.37a4.37 4.37 0 0 0 .22 1.59c.15-1.51-.27-3.61 0-5.1.13.16.14.45.43.44.22-.19-.26-1.34-.62-1.39z"/><path fill="#eeeeef" fill-rule="evenodd" d="M76.55 66.99c.3-.07-.34-1.23-.49-1.35-.45.18.29 1.4.49 1.35zM45.92 67.01c-.06 0-.05-.08-.1-.09a27.44 27.44 0 0 0-.14 3.55c.27-.17.1-.54.12-.82a21.21 21.21 0 0 0 .12-2.64zM85.82 66.13a2.58 2.58 0 0 0 .8 1.3c-.13-.52-.55-.76-.67-1.3zM89.19 66.23a1.7 1.7 0 0 0 .61 1c-.11-.41-.19-.89-.61-1zM77.01 67.21c-.64-.08-.17.74-.33 1.28.28 0 0-.48.17-.59-.05.42.81.83.82.21a1 1 0 0 1-.66-.9zM83.11 67.15a2.84 2.84 0 0 0 .53 1 1.14 1.14 0 0 0-.53-1zM58.28 68.03c0-.05-.06-.07-.09-.09a8.58 8.58 0 0 0-.07 2.69c.28-.16.11-.52.11-.82-.01-.52.08-1.16.05-1.78zM80.02 67.46c0 .17.07.29.24.31-.03-.16-.04-.33-.24-.31zM89.76 67.27c.1.3.17.63.43.76a.72.72 0 0 0-.43-.76zM86.67 67.66c0 .14 0 .27.19.27 0-.11-.01-.31-.19-.27zM17.46 72.2c.16 0 .19-.13.17-.32-.25-.06-.27.21-.17.32zM92.56 77.82c0 .16.5.22.41-.05a1.05 1.05 0 0 0-.41.05zM91.16 78.02c.12 0 .19 0 .18-.14s-.2.02-.18.14zM84.71 78.59c-.14 0-.42-.05-.55 0 .08.21.32.18.46.18.35 0 .65-.05 1.05 0a6.81 6.81 0 0 0 1.77-.22 9.62 9.62 0 0 0-2.73.04zM87.62 78.52c0 .11.07.14.14.17.15-.14.34 0 .5-.1 0-.24-.51-.12-.64-.07zM91.44 78.42a18.63 18.63 0 0 0-2.59.07s-.05 0-.05.09a26.62 26.62 0 0 0 3.46 0c.23 0 .43.18.64 0-.22-.48-.98-.17-1.46-.16zM47.17 81.13c.08 0 .33.14.32-.05s-.34-.06-.32.05zM89.84 80.1c-.56 0-1.2.09-1.54.08a.13.13 0 0 0-.09.14 17.47 17.47 0 0 0 2.91 0c-.2-.32-.84-.22-1.28-.22zM91.21 80.34c.22.15.49-.09.36-.28-.24-.02-.4.03-.36.28zM87.39 80.25a.2.2 0 0 0 0 .14 1 1 0 0 1 .41-.06c.01-.14-.33-.13-.41-.08zM8.11 82.9c-.5 0-.95 0-1.18.21.36.02.93.07 1.18-.21zM34.68 82.26c.24.69 1.35-.05 1.83.41 0-.26.41 0 .4-.24-.61-.27-1.57.09-2.23-.17zM32.86 82.48a7.06 7.06 0 0 1-1.09-.11c-.21 0-.48.1-.73.11h-2.28c-.28 0-.54 0-.63.19a1.83 1.83 0 0 0 1 .07c.44 0 1 .09 1.51.06 1.24-.09 2.72-.12 3.77-.28-.49-.3-1.01-.09-1.55-.04zM37.1 82.47c.07.12.42.12.54 0 .01-.24-.48-.16-.54 0zM40.23 82.4a.57.57 0 0 1 0 .13 10.06 10.06 0 0 0 2.77-.16 21.49 21.49 0 0 0-2.77.03zM88.92 81.26c-.86 0-1.88 0-2.82.12h-1c-.34 0-.61-.17-.72.15 1.68 0 3.69 0 5.09-.21-.07-.35-.35-.06-.55-.06zM89.92 81.19c0 .35.73.22.82 0-.19-.12-.56-.05-.82 0zM59.58 82.38a5.45 5.45 0 0 0 2.09-.05c.45 0 .93.09 1.37.06.19 0 .37-.14.54-.15.37 0 .75.11 1.1.11.9 0 1.75-.18 2.63-.25-2.49 0-4.92.09-7.09.13-.21 0-.48-.15-.64.15zM68.23 82.17c.58-.06 1.32.13 1.81-.13a4.38 4.38 0 0 0-1.05-.07c-.26.01-.64-.01-.76.2zM70.27 82.08c.42-.08.76.16 1-.12-.35 0-.78-.14-1 .12zM58.13 82.46h.27c.03-.26-.34-.2-.27 0zM7.54 83.92v.18c.31 0 .55.09.77-.06.01-.3-.58-.22-.77-.12zM8.63 83.89c0 .31.36.11.55.12s.72.15.82-.15a7 7 0 0 0-1.37.03zM43.92 83.72c.34 0 1.49.2 1.68-.14-.52.02-1.39-.22-1.68.14zM46.23 83.52c0 .17.07.21.23.18s-.08-.2-.23-.18zM47.68 83.63c.34.15.66-.06 1.1 0-.27-.13-.86-.25-1.1 0zM50.18 83.43c-.45 0-1-.05-1.17.26.38-.11 1.55.15 1.9-.23a4.55 4.55 0 0 1-.73-.03zM46.04 83.57h-.22c-.03.25.25.16.22 0zM47.5 83.54h-.23c-.03.2.25.15.23 0zM8.38 84.76a1 1 0 0 0 1-.07c-.17-.27-.94-.22-1 .07zM10.47 84.53c-.33-.07-.31.32-.54.1a.39.39 0 0 0 .1.36c.22-.07.62.08.67-.24-.17.07-.2-.1-.23-.22zM80.58 83.01c-.24 0-.48-.09-.73-.07-1.07.07-2.18.24-3.32.26-.37 0-.75-.1-1.14-.11-4-.1-7.29.2-10.87.35-.56 0-1.18-.09-1.73 0-.15 0-.53 0-.58.24l2.91.06c.5 0 1-.13 1.5-.12 1.19 0 2.25-.1 3.59-.09s2.59-.19 3.87-.14c.61 0 1.2.08 1.78.05a54.48 54.48 0 0 0 6.68-.39 6.77 6.77 0 0 0-1.96-.04zM29.73 84.56c-.51 0-1.13.17-1.68.18-.88 0-1.78-.14-2.65-.16-2-.06-3.57.05-5.5 0-3 0-5.86.11-8.88.08h-.09a.26.26 0 0 0 .05.14 5.87 5.87 0 0 0 2 0h7.41c.83 0 1.65-.1 2.46-.1.46 0 .9.07 1.37.06s1-.05 1.45 0c2.35.08 4.74.09 7.15 0 .48 0 .95.16 1.41.15s.89-.15 1.37-.17c.88 0 1.78.15 2.68.16s2.07 0 3.05-.07c.83-.06 1.57-.06 2.42-.06.49 0 1-.13 1.49-.13.67 0 1.35.16 2 .14.28 0 .55-.12.82-.11s.85.14 1.27.1c.18 0 .36-.09.55-.1.44-.05 1 .15 1.41-.22-7.16-.2-14.58.45-21.56.11zM82.72 83.05c.16.09.49.14.55-.06-.09-.07-.53-.09-.55.06zM70.59 83.75v.14a5.56 5.56 0 0 0 1.64.1c1.5 0 3.44 0 5.32-.09 2.45-.06 5 0 7.37-.17a8 8 0 0 0 2.14-.29c-5.5-.05-10.74.23-16.39.27-.04 0-.05.03-.08.04zM87.28 83.4a.28.28 0 0 0 0 .09h.27v-.09zM65.05 84.39c-.36 0-.74-.1-1.1-.11h-2.5a4.44 4.44 0 0 0-1.09.07c-.09 0-.17.16-.27.19a4.55 4.55 0 0 1-1-.11c-2.16-.17-4.58 0-6.65 0a1.74 1.74 0 0 0-1.13.21c3.53.09 7.26 0 10.93 0 .85 0 1.73-.12 2.59-.11.12 0 .2.08.32.08.4 0 .79-.16 1.18-.16s.83.24 1.13-.08c-.68-.36-1.54-.03-2.41.02zM68.32 84.36c.22.23.8.2 1.24.19s.88 0 1.08-.21a6.71 6.71 0 0 0-2.32.02zM70.78 84.34c.25.07 1 .36 1.05-.07-.39-.03-.83-.16-1.05.07zM68.05 84.5c.11 0 .17 0 .18-.1s-.08-.06-.18 0zM84.07 84.15c.4.27.82 0 1.37 0s.9.09 1.41.1 1.77 0 1.95-.37c-1.08 0-2.15.11-3.23.17-.6.06-1.09-.23-1.5.1zM80.98 84.27a1.6 1.6 0 0 0 .73.12c.34 0 .88 0 .95-.25a2.76 2.76 0 0 0-1.68.13zM82.75 84.28c.29 0 .7.12.82-.11-.18-.12-.83-.25-.82.11zM80.11 84.3c.07 0 .06.1.1.13s.25-.05.22-.23a.2.2 0 0 0-.32.1zM79.52 84.36c.12.09.39 0 .36-.15-.15.02-.39-.05-.36.15z"/><path fill="#eeeeef" fill-rule="evenodd" d="M110.11 67.46c-.32-.11-.51-.51-.7-.72s-.27-.16-.37-.26c-.38-.39-.73-.84-1.12-1.25s-.88-.72-1.26-1.15c-.62-.71-1.21-1.39-1.87-2.09s-1.29-1.36-1.92-2c-1.65-1.85-3.32-3.76-5.05-5.48-.58-.58-1.07-1.22-1.59-1.78-1.11-1.2-2.3-2.44-3.36-3.61s-1.93-2.23-2.9-3.11l-.79-.76c-.35-.34-.6-.76-.94-1.11-1.33-1.43-2.7-2.81-4-4.23a50.17 50.17 0 0 0-2-2.14c-.18-.19-.43-.29-.61-.48s-.52-.68-.84-1c-.94-.9-1.76-1.89-2.62-2.85a4.19 4.19 0 0 0-.37-.35c-.08-.07-.78-.65-.93-.57a13.89 13.89 0 0 0 2.21 2.54c.27.32 1 .9 1.12 1.21 0 .09-.06.26 0 .36a3.66 3.66 0 0 0 .48.81v.31c0 .09.15.14.19.23.54 1.24 1 2.53 1.68 3.78s1.18 2.5 1.73 3.78c1.11 2.58 2.44 5.06 3.46 7.52-.5-.47-1.42-.65-1.85-1.23-.1-.14-.18-.46-.29-.68-.34-.68-.67-1.38-1-2-1.08-2.07-2-4.38-3-6.48a2.43 2.43 0 0 0-.71-1.12c1.42 3.48 3.17 6.63 4.66 10a5.78 5.78 0 0 1-1.15-.6 4.23 4.23 0 0 1-1-.8c-.09-.17-.06-.39-.14-.59-.31-.69-.75-1.36-1.1-2.06-1.07-2.14-2.19-4.28-3.07-6.53-.58-1.48-1.31-2.94-2-4.37-.54-1.08-1-2.21-1.54-3.24-.19-.37-.26-.8-.43-1.17a21.28 21.28 0 0 1-1.3-2.84c.8.73 1.61 1.69 2.33 2.5.25.27.54.7.79.66a6.18 6.18 0 0 0-1.64-2.19c-.52-.58-1-1.17-1.55-1.69-2.17-2.25-4.09-4.45-6.21-6.63-.53-.55-1-1.1-1.54-1.65s-1.14-1.06-1.63-1.6c-.1-.1-.16-.32-.29-.45-.43-.45-1-.86-1.44-1.37s-.86-1.05-1.36-1.52c-.67-.63-1.49-1.38-2.15-2.13a9.41 9.41 0 0 1-.7-.76 6.48 6.48 0 0 1 0-1.82c0-.4.39-.89-.08-1-1-.23-.69 1.84-.62 2.47a6.7 6.7 0 0 0-1.19 1.62c-.19.29-.38.59-.61.88-1.47 1.86-3.06 3.75-4.42 5.66-.56.8-1.15 1.48-1.72 2.23-.4.52-.7 1.09-1.14 1.58a12.49 12.49 0 0 1-1.5-1.56c-.5-.53-1.12-1-1.58-1.46-1.46-1.61-3.32-3.52-5-5.25-.41-.42-.88-.8-1.31-1.25s-.75-1-1.21-1.38-.82-.74-1.31-1.24a9.64 9.64 0 0 1-1.26-1.34c-.05-.24.08-.22.08-.5s-.16-2.68-.52-2.67-.29 1.49-.26 2.23.24 1.38 0 1.91c-.36-1.13-.68-2.3-1.08-3.47-.15-.42-.3-.8-.44-1.22s-.2-.9-.35-1.31-.37-.64-.48-1c-.22-.68-.47-1.33-.64-1.95 0-.13 0-.33-.06-.54-.09-.36-.55-2.18-1-2.12s-.17.47-.21.74a3.92 3.92 0 0 1-.21.59 16.41 16.41 0 0 1-.82 1.85c-.62 1.23-1.26 2.42-1.92 3.64-.85 1.59-1.61 3.3-2.38 5-.38.82-.68 1.69-1.08 2.48-.08.18-.27.31-.35.47s-.06.32-.12.46c-.21.41-.51.78-.7 1.2-.42.91-.77 1.81-1.21 2.67-.22.41-.5.83-.7 1.24-.8 1.67-1.53 3.41-2.25 5-.18 0-.31-.16-.46 0 .05 1.08.93 1.88 1.44 2.74.73 1.25 1.46 2.43 2.18 3.59a8 8 0 0 1 1.14 2.07c-1.33-1-3.08-2.2-4.63-3.26-.43-.29-1.77-1.8-1.74-.41.21.23.71.37.74.66 0 .11-.18.3-.26.51-.2.54-.43 1.21-.68 1.88-.81 2.23-1.89 4.38-2.61 6.67-.13.4-1.27 3.14-1.63 4.13s-2.45 6-3 7.5c-.19.51-.91 2.3-1.07 2.66-.09.2-.54 1.33-.69 1.7-.23.6-1.23 3.15-1.5 3.82-.07.18-.4.94-.48 1.15-1.3 3.47-3 6.78-4 10.2-.56 0-.89-.22-1.42-.24-.26.45-.1.77.43.81.8.07 1.82-.15 2.68-.06h.73c.23 0 .3.16.46.17s.31-.07.41-.05.23.17.41.22.31 0 .46 0a10.63 10.63 0 0 0 1.41.23 14.07 14.07 0 0 1 1.47.15c.42 0 .92-.05 1.32 0 .11 0 .22.15.32.18a6.91 6.91 0 0 0 2 .18 15.42 15.42 0 0 1 1.82.14c.7 0 1.44.07 1.92.13a15.52 15.52 0 0 0 2.36 0c.8 0 1.6.18 2.42.12 1.58-.11 3 0 4.55-.11a46.72 46.72 0 0 0 5.18-.26c.16 0 .29-.13.45-.15s.42.08.64.08c1.76 0 3.87 0 5.42.18a14.12 14.12 0 0 1 .15 2.1l-6.38.11h-5.1c-1.47-.07-2.78-.08-4-.13-2.33-.11-4.51-.09-6.69-.25l-1.66-.15c-.95-.06-1.48-.2-2.23-.3a1.6 1.6 0 0 0 .58 1.21 9 9 0 0 0 1.51 1.09 23.89 23.89 0 0 0 5.95 2.51 11.27 11.27 0 0 1-2.59.11c-1.2-.09-2.44.2-3.69.18h-2.18c-.48 0-1.07.18-1.5.17-.13 0-.3-.11-.46-.12-.66-.06-1.6.08-2.36.05-.39 0-1-.18-1 .35.28.16.78 0 1.09-.07.7-.05 1.57.07 2.41 0s1.37 0 2.1 0c2.28-.07 4.28-.08 6.14-.19h1.5c4-.16 8.17-.19 12.24-.3 4.75-.13 9.52-.35 14.38-.26a3.46 3.46 0 0 1-.91 0c-.67 0-1.37.21-2 .18a3.28 3.28 0 0 0-.41-.08c-.18 0-.37.15-.54.15s-.32-.13-.46-.12-.3.13-.46.14a3.88 3.88 0 0 1-.45-.08c-1.43-.08-3.16.1-4.37.15-.33 0-.7-.11-.91-.07s-.22.19-.32.19a5 5 0 0 1-.63-.12 11.32 11.32 0 0 0-1.33 0c-.15 0-.34.15-.49.15a2 2 0 0 1-.37-.13 7.68 7.68 0 0 0-1.59 0c-1.21.09-2.39.05-3.6.09-.38 0-.76.15-1.13.16s-.42-.12-.64-.12-.24.1-.36.1h-1.5a25.4 25.4 0 0 0-2.74 0c-.17 0-.32.17-.49.19-.49.08-1.06-.09-1.6 0a3.81 3.81 0 0 1-1 .07 24.16 24.16 0 0 0-2.69 0c-3 .16-5.49 0-8.28.11a.86.86 0 0 0-.67.2c.46.56 1.67-.14 2.54 0a3.64 3.64 0 0 0 .78.07 11.59 11.59 0 0 1 1.46 0c1.58.09 3.31-.13 4.91-.16.66 0 1.32.09 1.91.08s1.1-.34 1.6.06a2.17 2.17 0 0 1-1 .21h-3.69c-.59 0-1.2.08-1.81.09-1.62 0-3.6.09-5.37.13-.36 0-.8-.2-1 .11.31.32.85.13 1.28.11 1.93-.1 3.73 0 5.64-.09a30.9 30.9 0 0 1 5-.12c-.33-.05-.34.21-.5.33a12.15 12.15 0 0 1-2.13.14c-.94.06-2 .18-2.87.16-.28 0-.62-.16-.77-.16s-.42.09-.64.1c-1.26.07-2.28.08-3.32.13-.45 0-1.09-.12-1.27.21.22.19.59.11.82.07a33.72 33.72 0 0 1 4.14-.1c.53 0 1-.14 1.59-.17 1-.06 2.29.14 3.1 0-.05.24-.53.07-.49.38.21.16.59-.16.73.07-.49.08-1 0-1.5.09-.19 0-.36.17-.54.19h-1.19a61.36 61.36 0 0 0-6.27.15c.09.35.53.09.77.07a13.17 13.17 0 0 1 1.55 0c1.53.13 3.27-.17 4.69 0a.82.82 0 0 0-.54.37c-.39-.11-.5.07-.68.25-.92.08-2.17 0-3.27 0-.2 0-.56 0-.68.2.29.19.84.09 1.55.05.44 0 1.34-.12 1.41.15s-.34.27-.58.38c.12.47-.21.4-.3.74a29.24 29.24 0 0 0 4.1.08c2.25-.07 4.62 0 6.91-.22a22.54 22.54 0 0 1 2.68-.15c.58 0 1.13.12 1.69.09.41 0 .82-.13 1.23-.12s.81.19 1.23.2c.85 0 1.75-.09 2.64-.11 2.11 0 4.49-.06 6.82-.12a31.29 31.29 0 0 0 6.14-.33c-2.19 0-4.42 0-6.6.07-.49 0-1-.08-1.46-.06s-.84.16-1.27.17-1.09-.11-1.64-.1c-1.28 0-2.52.06-3.73.05-.81 0-1.48.11-2.14.14-.47 0-.91-.13-1.36-.15s-.76.09-1.14.08-.77-.12-1.14-.11c-1 0-1.91.16-2.86.25s-1.74 0-2.51 0a10.85 10.85 0 0 1-2.55 0c.41.07.09-.29.4-.28-.07.48.53.27.55 0 3.58-.18 7.12-.22 10.56-.3a8.23 8.23 0 0 1 1.49-.09c.14 0 .25.12.42.13a14.59 14.59 0 0 0 1.59-.13c3.22-.06 6.28 0 9.33-.09.74 0 1.47.1 2.18.09.46 0 .92-.16 1.37-.17s1 .16 1.46.14c.69 0 1.36-.07 2-.09a22.23 22.23 0 0 0 3.41-.18c.15 0 .12.19.24.23a7.06 7.06 0 0 0 2 0c1.39-.07 2.74-.1 4.14-.1a29.48 29.48 0 0 0 3 0c.62-.06 1.25 0 1.86 0 .23 0 .46-.14.68-.15 1.31-.12 2.65 0 4-.06 2.47-.07 5-.1 7.51-.18a21.48 21.48 0 0 1 2.87.16c1.35.14 2.91-.07 4.32-.06h1.23a13 13 0 0 0 2.36-.24c1.78.38 3.76-.26 5.74-.1-.41-.35-1-.13-1.42-.1-1.05.06-2.25.18-3.32.13a3.54 3.54 0 0 1-1.37-.15c.21 0 .54.07.55-.15s-.71 0-.88-.21c.26-.12.82 0 1-.2a1.55 1.55 0 0 0-.55-.08c0-.11.28-.13.13-.28-.47-.23-1 .12-1.42-.23.26 0 .6 0 .63-.2-.65-.29-1.67.19-2.23-.18a17.38 17.38 0 0 0 2.05-.09c.13 0 .26-.17.4-.19a5.12 5.12 0 0 1 1 0 13 13 0 0 0 2.27-.24c-1.32-.14-3.08.16-4.64.07 0-.14-.15-.14-.33-.27.1-.12.29.1.27-.14s-.53 0-.37-.27c2.27-.41 5.32-.11 8-.23.33 0 .65-.11 1-.12.59 0 1.23.22 1.64-.13-.45-.27-.94-.05-1.46-.05-2.59 0-5.39.05-7.65.09-.44 0-1.05.21-1.49.22-.27 0-.78-.06-.75-.48.9-.27 2.23 0 3.14-.26-.58-.3-1.41 0-2.09-.09-.15 0-.29-.08-.42-.08-.6 0-1.37.25-1.82-.05a4.69 4.69 0 0 1 1.95-.27c1.85-.13 3.49-.06 5.23-.08.81 0 1.63 0 2.41-.06.31 0 .67 0 .91-.16-1.4-.07-2.8-.09-4.19 0h-2.82c-.25 0-.48.11-.72.11s-.68-.12-1-.12-.69.11-1 .12a16 16 0 0 1-1.6-.1c-1.24-.07-2.58.25-3.46 0 1.45-.1 2.66-.09 4-.14 4.21-.17 8.82-.33 12.7-.26.43 0 1.7.1 1.54-.41-.06-.16-.46-.17-.83-.16-1.85.07-3.44.17-5.41.22-2.76.08-5.32.27-8 .15.22-.55.87-.48 1.35-.62.71-.22 1.5-.52 2.3-.79 1.43-.47 5.74-1.7 6-1.78l1-.3c.32-.1 16.07-4.48 18.45-5.23.27-.08.72-.31 1.08-.39s.53-.06.68-.1c.61-.19.45-.26.45-.34-.09-.41-.42-.19-.83-.31zM11.45 83.82c.06-.14.29-.11.45-.15.02.23-.2.07-.45.15zm3-1.76v.09h-.28v-.09zm0 1.64c0 .13-.42.09-.45 0 .15.03.35-.12.45-.04zm-.62.38c.13-.18.47-.14.77-.16 0-.1 0-.17-.1-.18s.12 0 .18 0a2.44 2.44 0 0 1 0 .27 1.31 1.31 0 0 1-.85.03zm1.22-.08c-.2 0-.1-.26-.27-.26.16-.08.48-.15.59 0-.3-.12-.31.08-.32.22zm.28-1.87c.19-.21.78-.06 1.13-.12-.18.2-.79-.03-1.13.08zm67.88.31c-.2.17-.64-.12 0 0zm-.69-.35c.07-.19.38 0 .59 0-.19.02-.48.07-.59-.04zm.26-.37c-.06.17-.24.25-.32 0s.23-.01.32-.04zm-.51-.48c0 .12-.5.17-.5 0 .15.04.26-.07.5-.04zm-.08.5c-.06.07-.25.15-.23 0a.27.27 0 0 1 .23-.04zm-.9.34a3.06 3.06 0 0 1 .86 0c-.19.23-.51.07-.86.11-.03-.1-.06-.14 0-.15zm-.53-1.17c0 .15-.33.1-.32 0s.22-.09.32-.04zm22.08-20.34c1.82 2.09 3.87 3.93 5.66 6a5.18 5.18 0 0 1-1.39-.83c-.47-.29-1-.57-1.43-.87-.21-.14-.35-.4-.56-.54s-.45-.13-.64-.25c-.74-.46-1.5-1.07-2.27-1.59-2.28-1.53-4.75-3.1-7-4.65.84.19 2.21.56 3.16.88.51.17 1.07.3 1.56.46s1 .39 1.47.51.62 0 .82.12a3.9 3.9 0 0 1 .62.72zm-1.57 4.59c-.67-.7-1.36-1.45-2.06-2.18-.23-.24-.42-.54-.65-.76a17.32 17.32 0 0 0-2.15-2.31c-.09-.52-.5-.7-.71-1.08.64.09 1 .66 1.48 1 .09.05.23 0 .32.08.81.45 1.49 1.1 2.31 1.54.07.59.72 1 1.13 1.43 1.05 1.11 2 2.44 3 3.43a32.14 32.14 0 0 1-4-.32 9.25 9.25 0 0 0-1.36-1.69c-1.2-1.23-2.31-2.52-3.42-3.83a35.74 35.74 0 0 1-3.32-3.79 4.08 4.08 0 0 0 1.1.33c.8.31 1.38 1 2.17 1.41-.07.48.32.59.62.9.7.72 1.25 1.42 2 2.22 1.31 1.48 2.72 3.13 4.11 4.5a1.74 1.74 0 0 0-.57-.92zm1.65-.34c-.4-.45-.78-1-1.22-1.52a7.78 7.78 0 0 1-1.22-1.48c.87.45 1.95 1.26 2.83 1.85.63.42 1.22.61 1.62 1.28a4.28 4.28 0 0 0 1 .88c.07-.24-.32-.4-.37-.67a23.4 23.4 0 0 0 2.16 1.31 22.12 22.12 0 0 1-3.6-.23c.02-.49-.82-.95-1.2-1.42zm-1.22-5.53a2.42 2.42 0 0 1-.87-.21c.13-.54-.34-.73-.4-1.22a6.21 6.21 0 0 1 1.25 1.47zm-2.25-2.5c.21.23.57.49.65.67s0 .15 0 .23c.06.46.6.79.63 1.3-.64-.09-1.14-.32-1.74-.45a6.8 6.8 0 0 0-1-2.35c-.23-.49-.35-1-.53-1.53a22.26 22.26 0 0 1 1.97 2.16zm-8.74-9.34c1.06.92 1.93 2.05 2.9 3.07-.19.46.4 1.2.68 1.8.88 1.87 1.75 3.63 2.54 5.45a3.92 3.92 0 0 0-.44-1.49c-.72-1.81-1.77-3.5-2.5-5.41a18.34 18.34 0 0 1 1.77 1.83l.66.66a5.54 5.54 0 0 1 .65.67c.05.09 0 .27 0 .37a7.39 7.39 0 0 0 .48 1c.45 1 .92 2 1.35 3.06a24.5 24.5 0 0 1-3.63-1.19c-1.43-3.38-3.08-6.53-4.56-9.85.04.01.07.03.08.07zm-3.18-3.61a22.86 22.86 0 0 0 2.1 2.27 3.76 3.76 0 0 1 .66.8c0 .11-.05.3 0 .41a10.07 10.07 0 0 0 .62 1.22c1.23 2.82 2.86 5.72 3.94 8.59-.52-.21-1.39-.28-1.74-.77-.12-.17-.17-.55-.3-.81-1.66-3.36-3.33-7-4.94-10.49a2.91 2.91 0 0 1-.44-1.22zM86 48.42c-.34-.68-.62-1.24-.91-2s-.78-1.5-1.11-2.29a74.57 74.57 0 0 0-2.64-5.76 5.2 5.2 0 0 1-.68-1.72 22.29 22.29 0 0 1 2.15 2.18 4.6 4.6 0 0 1 .7.71c.1.23-.07.55.2.68s.13-.11.13-.23c1 1 2 2.09 3 3.12.06.14-.15 0-.09.18 1.5 3.18 3.07 6.5 4.56 9.77a29.69 29.69 0 0 1 1.26 2.93c-.2 0-.32-.1-.33-.32-.7-.08-1-.64-1.57-.82a8.14 8.14 0 0 0-.72-1.76c-1.71-3.91-3.87-7.69-5.48-11.75a2.48 2.48 0 0 0-.61-1 13.69 13.69 0 0 0 1.16 2.83c.2.48.42.94.63 1.4s.5.85.71 1.3.25.8.44 1.18c.65 1.31 1.36 2.82 2 4.27a22.11 22.11 0 0 1 1.49 3.24 5.83 5.83 0 0 1-.92-.61 5 5 0 0 1-1-.61 5.76 5.76 0 0 1-.38-.86c-.66-1.25-1.34-2.66-2.01-4.02zm-2.36 2.29a6.43 6.43 0 0 1 1.35 1v.23c0 .06.39.31.56.49a9.85 9.85 0 0 1 1.41 1.74c-.31-.14-.64-.27-1-.39-.43.62.63.81 1.06 1 .17-.06.11-.32.22-.42.29.06.07.35.15.5s.58.2.83.39-.06.23.05.32c1.27 1.23 2.46 2.54 3.69 3.82 0-.51-.54-.77-.85-1.16s-.46-.45-.7-.71-.39-.55-.61-.76c-.07-.07-.21-.07-.27-.13-.31-.32-.52-.75-.85-1 0-.22.2-.22.22-.41-.26-.52-.88-.42-1.29-.7-.16-.1-.3-.41-.47-.58a10.76 10.76 0 0 1-1.45-1.7 13.93 13.93 0 0 1 1.66 1.1c.92.56 1.54 1 2.45 1.54a3.22 3.22 0 0 1 .7.53c.09.19-.05.42 0 .59s.47.32.79.43c.2.73 1.1 1.29 1.59 1.83s.75.94 1.17 1.38c1.17 1.24 2.52 2.6 3.65 3.92.34.41.63.85 1 1.21s.8.66.94 1.16a11.34 11.34 0 0 1-1.92-.23c0-.53-.49-.68-.79-1a15.39 15.39 0 0 1-1.13-1.38c-.37-.47-.77-.92-1.17-1.34a22.44 22.44 0 0 0-2.48-2.49 4.59 4.59 0 0 0 1.18 1.38c.4.42.78.9 1.17 1.34a34.06 34.06 0 0 1 3 3.39c-.49-.13-1.73 0-2.2-.36-.08-.05-.19-.33-.28-.45-.3-.36-.57-.54-.89-.89-.18-.2-.3-.52-.47-.71s-.34-.25-.47-.4c-.62-.75-1.23-1.52-1.92-2.23-1.93-2-3.91-4.31-5.79-6.37.57-.75-.77-.83-1.21-1.11-.22.09-.1.42 0 .59.24.13.63.08.83.26s.14.32.24.44c.62.79 1.46 1.66 2.15 2.41l2.52 2.72c.44.45.78 1 1.22 1.42a43.41 43.41 0 0 1 3.7 4.15 2.48 2.48 0 0 1-1.47-.28c-.16-.1-.27-.33-.46-.45s-.33-.1-.41-.17-.18-.29-.29-.4a38.21 38.21 0 0 0-2.84-2.85c-1.13-1.5-2.47-2.77-3.74-4.19-.56-.62-1.12-1.09-1.6-1.73-.59-.82-1.45-1.45-2-2.32.79-.53-.82-.75-1.12-1-.09-.08-.16-.32-.28-.45-.67-.71-1.72-1.74-2.38-2.44-.31-.33-.29-.68-.74-.63-.12-.17-.08-.41-.29-.4-.42 0 .33 1.69.5 1.72.44.08.15-.58 0-.82a16.88 16.88 0 0 1 2 2c.18.2.61.5.65.67s-.08.34 0 .46c.16.38.8.4 1.11.56.39.86 1.39 1.54 2 2.28 2.26 2.68 4.76 5.12 7 7.84-2.5-1.86-4.89-3.83-7.24-5.83.07 0 .17 0 .18-.06-1.35-1.27-2.76-2.89-4.07-4.36-.34-.38-.73-.58-.71-1-.12 0-.1.18-.23 0s.15-.43.12-.77-.35-.89-.56-.85c-.43.07.16.83.21 1.13-.46-.17-.67-.64-1-1-.93-1-1.92-2.08-2.9-3.12s-2-2-2.9-3.11a5.62 5.62 0 0 0-1-1c.1.44.49.71.75 1 .92 1.12 2 2.19 3 3.3 2.38 2.63 4.77 5.33 7.2 8 .1.1.18.25.28.35s.27.12.37.22c.35.34.54.85 1 1.07a29.75 29.75 0 0 1-4-3.14 27.92 27.92 0 0 1-3.63-3.24c-1-1.19-2.19-2.32-3.31-3.51s-2.15-2.44-3.28-3.61-2.11-2.48-3.18-3.65c-.22-.25-.55-.45-.79-.71v-.05c.38-.07.53.32.79.53s.66.4 1 .61c.89.63 1.9 1.32 2.87 1.89 0 .39.43.49.66.76.1 0 0-.21-.06-.23a42.3 42.3 0 0 1 4 2.55 16.58 16.58 0 0 1 2.43 2.58c.15.05 0-.15.18-.1 0 .26.15.43.33.36s-.19-.84-.26-1a12 12 0 0 1 3.62 2.6c1.12 1.2 2.12 2.54 3.23 3.7-.26-.12-1.41-.67-1.09 0 .11.24 1 .35 1.24.57.15-.07 0-.17 0-.33a1.88 1.88 0 0 0 0-.31c-.08-.25-.61-.68-.84-.94-.81-.91-1.74-2-2.48-2.85 1.01.53 2.03 1.12 3.12 1.83zm10.93 18.81c-1.66 0-3.11.27-4.73.35a17.35 17.35 0 0 0-2.54.15c-1.06.21-2.27.41-3.54.63a7.51 7.51 0 0 1-2.08.28c-.28-.09-.62-.71-.9-1.07a4.14 4.14 0 0 1-.75-1.17c5.14 0 10.25.19 15.29 0a1.21 1.21 0 0 1-.86.21c-.04.31.09.41.09.66zm-14.9 2.3c.1-.19.4-.26.59-.29.42-.07.85-.11 1.27-.17.8-.11 1.67-.2 2.54-.29a26.65 26.65 0 0 1-4.4.75zm2.29 2.27c0-.06 0-.09-.05-.1s.29 0 .32-.19c.09.02-.1.26-.31.26zm-.36.28c.06.18-.24.3-.49.24.01-.25.37-.15.49-.27zm-1.26.39c-.07.15-.33.1-.5.15.01-.21.4-.21.5-.18zm-2-6.23c1-.08 1.52.33 1.4 1.38-.55 0-1 .1-1.28.07a8.26 8.26 0 0 1-.14-1.48zm-.09 0a2.59 2.59 0 0 0 0 1.41 7.43 7.43 0 0 1-1.28.07c-.09-.33.09-1-.12-1.36-.23.38.07 1-.1 1.42-2.07 0-3.88.23-5.87.14 0-4.33-.17-8.88-.38-13.65.28.06.48.54.76.94s.58.63.65.85a12.48 12.48 0 0 1 .06 2.32c.16 2.33.09 4.93.21 7a11.65 11.65 0 0 0 .24 2.41c0-3.29 0-7.23-.26-11.06.44.27.5.94.8 1.35.18 0 .18-.18.32 0-.4.37.2.67.25 1 0 .1-.11.21-.12.32a17.47 17.47 0 0 0 .19 2.45c.08 2 0 4 .23 5.92a4.79 4.79 0 0 0 0-2.1c-.05-2 0-4.11-.14-6.1.26 0 .2.26.46.22s0-.36 0-.55a1.56 1.56 0 0 1 .72 1.31c-.12-.26-.66-1-.69-.26 0 .37.67 1.08.76 1.3.22 0 0-.56.35-.37.06-.3-.22-.32-.1-.54a3 3 0 0 1 .7.8 3.85 3.85 0 0 1 .62.89c.17.49-.08 1.24.22 1.82.16-.32 0-.81.06-1.32.31.17.47.54.71.89s.59.61.65.9-.22.69.07 1c.25-.14-.08-.62.12-.74a3.35 3.35 0 0 1 .62.9c-.27.07-.64-.05-1 .07-.04.25.12.31.27.37zm-10.6-1.61c-.37.32-.12 1-.06 1.5s0 1.25.05 1.73a9.58 9.58 0 0 1-1.32 0c-.06-6.24-.54-13.14-.66-19.47a3 3 0 0 1 .08-.69c.29.14.4.5.7.94a7.64 7.64 0 0 1 .61.85 9.68 9.68 0 0 1 0 1.05c.26 4.47.26 9.81.53 14a2.69 2.69 0 0 0 .14-1.55 816 816 0 0 1-.41-13.14 28.79 28.79 0 0 1 2.3 2.9 3.74 3.74 0 0 1 .71 1 3.73 3.73 0 0 1-.08.5c0 .5.1 1.06.13 1.59.08 1.63.07 3.42.17 5.19.14 2.32.18 4.66.16 6.78a11.91 11.91 0 0 1-2.86 0c.01-.86-.16-2.18-.21-3.16zm-3.56-9.8c.13 4.24.3 8.75.4 13-1-.12-1.84 0-2.78-.2-.32-9.05-.63-17.62-.91-26.48.64.18.95 1.11 1.4 1.65a2 2 0 0 0-.15 1.14c0 2 .18 4 .23 6 .15 5.79.41 11.58.71 17.65a5.55 5.55 0 0 0 .08-2.14c-.18-7.44-.6-15.22-.81-22.38.22-.1.33.24.41.35.39.51.79 1.07 1.18 1.66.3.44.84 1 1.23 1.61a1.38 1.38 0 0 1 .34 1.13c0 2.91.24 6.21.32 9.41.09 3.56.29 7.16.48 10.55a6.24 6.24 0 0 1-1.55 0c-.1-5.06-.14-10.41-.5-15.24-.19-2.44-.05-4.86-.17-7.14 0 0-.07-.18-.15-.18-.19 3.17.12 6.41.22 9.63zm.4-15.48c-1.55-1.2-3-2.63-4.69-3.76a18.48 18.48 0 0 1-.07-2.64 5.11 5.11 0 0 1 1.25.75 10.5 10.5 0 0 1 1.16.7c.09.08.13.23.23.31a19.68 19.68 0 0 1 1.85 1.14c.2.21.36.48.56.71 1 1.07 1.91 2.22 2.91 3.3 1.17 1.28 2.39 2.55 3.59 3.83.4.43.75.86 1.17 1.29A10.31 10.31 0 0 0 74 49.01c-.19.06-.39-.17-.56-.3-.87-.67-1.79-1.37-2.69-2.08-1.53-1.22-3.08-2.53-4.64-3.8-.55-.41-1.11-.76-1.64-1.17zm2.7 4.35c2.94 5.84 6.07 11.57 9 17.35-1.3-1.74-2.69-3.54-4-5.36-1.14-1.61-2-3.84-3-5.67-.44-.77-.89-1.57-1.28-2.38-1.41-2.83-3-5.69-4.49-8.58a20.94 20.94 0 0 1 2.41 1.76 12 12 0 0 0 1.34 2.9zm-7.38-7.47a7.92 7.92 0 0 1 1.53 1.1 8.1 8.1 0 0 1 1.35 1.15c.11.18.14.43.24.63.63 1.25 1.45 2.55 2.14 3.82s1.25 2.7 1.92 4a47.69 47.69 0 0 1 2.77 5.34c-3.15-4.12-6.33-8.49-9.37-12.74-.12-.17-.43-.37-.51-.58-.33-.73.04-1.98-.09-2.7zm19.37 29.16c-.27-.42-.67-1.06-.94-1.43a7.85 7.85 0 0 1-1.42-2.24 15.58 15.58 0 0 0-1-1.84c-.91-1.78-1.84-3.73-2.81-5.44-1.77-3.14-3.44-6.56-5.16-9.8a34.2 34.2 0 0 1-1.72-3.42c.85.54 1.54 1.24 2.37 1.81a23.12 23.12 0 0 0 1.57 3.1c.27.5.55 1 .81 1.53 2.74 5.37 5.76 10.95 8.5 16.36.16.31.21.75.57.9a41.28 41.28 0 0 0-2.06-4.23q-2-4.17-4.29-8.27a55.55 55.55 0 0 1-2.11-4.14c-.76-1.66-1.87-3.15-2.57-4.85.93.6 1.68 1.4 2.59 2a.68.68 0 0 0 .11.59c.79 1.72 1.86 3.36 2.72 5.12 1.61 3.31 3.31 6.53 5 9.8a49.32 49.32 0 0 0 2.43 4.5 11.6 11.6 0 0 0-1.06-2.39c-.8-1.52-1.65-3-2.39-4.63-.35-.78-.86-1.48-1.24-2.25-1.23-2.55-2.47-5.16-3.82-7.6a21.83 21.83 0 0 1-1.34-2.65c.19-.06.38.18.55.31s.36.31.56.48 1 .56 1.16.89c.05.08 0 .27.05.36a10.63 10.63 0 0 0 .53.94c2.38 4.55 5.12 9.55 7.31 14.16a12.12 12.12 0 0 0 1 1.66 5.85 5.85 0 0 0-1-2.07c-.71-1.29-1.44-2.86-2.1-4.22-1.7-3.52-3.66-6.93-5.4-10.43.93.62 1.69 1.42 2.6 2.07 0 .13-.16-.08-.23 0 2.79 5.26 5.64 10.45 8.26 15.87-.91 0-2.13 0-3.19-.1-.18 0 0-.28-.14-.32s0 .28-.13.32h-1.37c-.81.03-.81.2-1.22-.43zm-.13-13.15c.4.29.12-.54-.11-.72.16.19.39.13.51.3s-.07.49 0 .78c.07.46.91 1 1.21 1.29.4-.45-.3-.67-.52-1-.11-.18-.09-.4-.2-.58 1 .68 1.84 1.46 2.79 2.16a5 5 0 0 0 .62 1.49c.07.16.23.3.24.4s-.19.36-.17.55.84 1.23 1 1.2c.61-.07-.22-.75-.29-.9s0-.2 0-.27c-.16-.59-1-1.46-1.1-2.11a26.8 26.8 0 0 1 2.18 1.63c0 .7.7 1.33 1 1.84.09.15.12.35.2.5a6.72 6.72 0 0 1 .86 1.66c-.2.16-.37.41-.26.64s.51.1.73.26.33.65.53.94c.3-.11 0-.4 0-.64.59-.35-.05-.71-.56-.71-.4-1.47-1.35-2.35-1.78-3.78.4 0 .57.4.88.66a8.08 8.08 0 0 1 1.44 1.15 9.23 9.23 0 0 1 .62 1.12c.19.4.31.83.53 1.22-.2.09-.51-.08-.59.15-.14.44.87.24 1 .57a7.36 7.36 0 0 0 1.14 2.2c.35.62.6 1.29.92 1.89-.47.19-.9-.32-1.23 0-.18 0-.18-.09-.24-.17s-.09.21-.22.23c-.41 0-1-.05-1.32-.06-1.27-2.19-2.38-4.56-3.58-6.83 0-.22.14.09.23.08.55-.44-.38-.91-.62-1.26-.54.31-.13.78.17 1.32 1.05 1.95 2.53 4.73 3.48 6.7-.55 0-1.24.12-1.55-.15-.39.33-1 0-1.45.08-1.8-3.61-3.67-7.13-5.45-10.7a38.61 38.61 0 0 1-2.29-4.31c.29.18.29-.22.5-.1-.19.47.36 1.04.73 1.3zm11.39 10a2 2 0 0 1 1.29.56c.09-.19-.08-.46.07-.64a.75.75 0 0 1-.37-.63 3.44 3.44 0 0 1 .74.58c-.33.42 0 .75.56.76 0 0 .2-.11.23-.1a1.21 1.21 0 0 1 .65.71c.3.82 1.14 1.73 1.29 2.52a3.92 3.92 0 0 1-1.23 0 3.2 3.2 0 0 0-.85-1.43c.05-.33-.26-.39-.38-.68s-.06-1.14-.48-1 .39 1 .48 1.17c.19.31.34.72.53 1.08s.48.69.48 1h-1.37c-.59-1.45-1.53-2.54-2.1-4 .2 0 .26-.21.27-.42-.2-.09-.39-.18-.6-.26-.22-.71-.64-1.2-.87-1.89a5.76 5.76 0 0 1 2.52 2.4c-.38-.14-1.1-.36-.88.26zm-10.32 5.29h-.2v-.18a.16.16 0 0 1 .2.18zm16-.66a1 1 0 0 1 .23.13c.36-.22 1-.08 1.59-.13.3 0 .63-.13.95-.16s.85-.18 1.05.11c-1.7.22-3.35.27-5 .44.1-.46.81-.15 1.15-.43zm-.74-.35a.51.51 0 0 1 .45-.06c-.14.07-.28.07-.48.07zm-.1-.45a4.89 4.89 0 0 1-.48-.77 14.9 14.9 0 0 1-.72-1.62 30.55 30.55 0 0 1 2.88 2.3c-.67-.1-1.29.28-1.71.05zM76.5 46.78a6.9 6.9 0 0 1-1-1.11 7.55 7.55 0 0 0 .88.52c-.12.18.06.34.09.55zm-7.37-22.49c.26.28.65.57.74.8s0 .28 0 .41a4.8 4.8 0 0 0 .28.54c2 4 3.89 8.33 5.86 12.42.34.73.65 1.46 1 2.16a12.79 12.79 0 0 0 1.1 2.07c-.56-1.66-1.44-3.2-2.16-4.82-.83-1.84-1.69-3.84-2.6-5.72-1-2.08-2.15-4.29-3-6.48 1.06 1 2 2.13 3.07 3.16a5.55 5.55 0 0 0 .63 1.53c.33.75.65 1.55 1 2.34.16.37.44.67.61 1s.24.76.39 1.12c1 2.32 2.25 4.71 3.32 7.07 1.23 2.72 2.54 5.4 3.79 8.06a24.37 24.37 0 0 1-2.31-1.45c-.79-2-1.69-3.8-2.6-5.63a5.15 5.15 0 0 0 .49 1.36c.56 1.26 1.27 2.54 1.73 3.92a2.84 2.84 0 0 1-1.1-.62 5.21 5.21 0 0 1-1.07-.7 6.88 6.88 0 0 1-.28-.72c-.75-1.45-1.6-3.24-2.26-4.72-.83-1.89-1.56-3.81-2.41-5.55-1.1-2.23-2.25-4.6-3.31-6.88s-2.36-4.74-3.27-7.07c.6.56 1.6 1.59 2.33 2.36zm-3.41-3.56a6.43 6.43 0 0 1 .66.71c0 .1 0 .34.05.45a14.45 14.45 0 0 0 1 2.12c1 2 2.08 4.2 3 6.25s1.9 4.32 2.93 6.4c.66 1.33 1.13 2.7 1.83 4.1.91 1.82 1.91 3.82 2.69 5.8-.36-.06-.58-.33-.88-.52s-.64-.28-.83-.53a6.4 6.4 0 0 1-.53-1.21c-.15-.32-.34-.63-.48-.95-1.85-4.17-3.92-8.4-5.86-12.6-1.07-2.31-2.23-4.65-3.31-6.93-.83-1.76-1.69-3.45-2.45-5.18a11.05 11.05 0 0 1 2.15 2.05zm-3-3c-.11.51.2.81.44 1.26.42.78 1 1.65 1.34 2.43a13.25 13.25 0 0 0 .62 1.53c.77 1.4 1.33 3 2.07 4.41 1.46 2.87 2.75 5.8 4.17 8.73.24.49.38 1 .63 1.53 1.13 2.33 2.33 4.88 3.41 7.29-.41 0-.66-.36-1-.56-4.89-3.12-9.8-6.52-14.76-9.62-.1-2.77-.24-5.7-.38-8.09 0-.24-.1-2.38-.17-3.32-.07-1.19-.13-2.17-.16-3.18 0-.43-.18-.85-.17-1.23a16 16 0 0 0-.09-1.63c0-.19-.09-.91-.11-1.09-.13-.92.05-2-.16-2.91 1.41 1.45 2.96 2.81 4.3 4.39zm-3.51 39.32c.28 4.47.37 9.07.64 13.37-.45-.1-.66.22-1 .34-.63.23-1.32-.12-2.18 0 .13-5.35.5-10.48.61-16a33.5 33.5 0 0 0 .12-4.55c-.27.28-.11.6-.12.91 0 .95-.18 1.91-.2 2.87-.06 2.3-.12 4.62-.29 6.93-.24 3.33-.2 6.67-.3 9.84a14.16 14.16 0 0 1-1.46 0c.47-7.24.7-14.6 1-21.74 0-.25.35.18.41-.1s-.31-.35-.38-.63a9.41 9.41 0 0 1 .05-1.69c0-.86.05-1.5.13-2.09.34.27 1 .26 1.15.65s-.14 1.38 0 2.1c0 .13.14.29.15.4 0 .28-.25.68.11.82a1.63 1.63 0 0 0 .24-1.24c-.09-.3-.39-.21-.37-.49s.23.18.45 0a3.88 3.88 0 0 0 0-1.18c.43 0 .4.45.74.53.1.87 0 2.19.08 3.36a7.12 7.12 0 0 1 .07 1c-.15 1.42-.15 3.17-.2 4.88-.11 4.15-.4 8.4-.47 12.48a5.33 5.33 0 0 0 .23-1.78v-1a6.48 6.48 0 0 0 .06-1.24 15.17 15.17 0 0 1 .14-2c.16-3 .16-6 .24-8.57.45.99.25 2.41.33 3.76zm-16.53-21c.54.1.82.47 1.25.7-.1 5-.32 9.9-.6 14.76-.3 5.12-.46 10.7-.71 15.72-.05 1-.06 2.25-.15 3.37a6.06 6.06 0 0 1-1.41 0c.45-11.78.94-23.04 1.6-34.6zM40.92 70.5c-.28.09-.81 0-1.32 0 .51-7.89.76-16.65 1.17-25 .17-3.45.5-6.94.48-10.44a3.23 3.23 0 0 1 1.15.75 8.41 8.41 0 0 1 0 2.23c-.08 2.1-.19 4.31-.39 6.39-.14 1.41-.09 2.95-.17 4.37-.47 7.17-.65 14.74-.92 21.7zm1.91-4.19c.15-2.73.3-5.7.42-8.84.12-3.29.47-6.76.53-10.12 0-2.6.17-5.18.26-7.75v-1.27c0-.41.05-1 .1-1.46a9.58 9.58 0 0 1 1.3.83c-.34 5.48-.42 11-.75 16.37-.16 2.69-.17 5.45-.3 8.24s-.37 5.52-.3 8.25a4.76 4.76 0 0 1-1.41 0c.08-1.41.04-2.74.13-4.25zm1.24-33c.42-.15 1 .24 1.46.19-.23.76-.91 1.09-1.13 1.85a6 6 0 0 1-.9-1.2c.18-.14.29-.73.55-.83zm-.62.66a1.87 1.87 0 0 1-.56-.76c.24.14.53-.05.77.11.03.33-.21.4-.23.66zm15.37-2.43c-.11.53.12 1 0 1.51-.08.32-.45.45-.48.78-.92-.28-1.23-1.19-1.9-1.73.71-1 1.39-2 2.15-2.87a6.08 6.08 0 0 1 .18 1.82 6.06 6.06 0 0 1-.52.65 4.75 4.75 0 0 0-.84 1.33c.6-.3.78-1.29 1.39-1.48zm-.83 10.77c-.07.13-.43.33-.58.56a2.9 2.9 0 0 0-.52 1c.56-.23.49-1.05 1.11-1.22 0 .62-.18 1.14-.23 1.74-.77-.37-1.44-.85-2.17-1.27a29.83 29.83 0 0 1 2.56-3.34 2.69 2.69 0 0 1-.07 1.05 4.34 4.34 0 0 1-.12 1.49zM55.15 36c-.95 1.31-2 2.57-3 4-.43.6-.43.78-1.13.35a3 3 0 0 0-.55-.35c1.06-1.31 2-2.85 3.13-4.27.34-.41 1-1.06 1-1.57 1.21.13 2.12.07 3.2.29a8.09 8.09 0 0 1-1.76 2.77 32.12 32.12 0 0 0-3.13 4.27c-.32-.24-.72-.4-1.06-.62 1.32-1.89 2.71-3.76 4.15-5.61.17-.22.47-.5.43-.83a9.23 9.23 0 0 0-1.3 1.58zm-3.68 7.42c-.13.21-.3-.38-.51-.08s.44.63.48.85-.11.42-.12.6c-.1 1.27-.08 2.65-.13 4.05-.09 2.28-.21 4.9-.33 7.25-.24 4.56-.51 9.9-.65 14.54a9.43 9.43 0 0 1-1.32 0c.3-7.31.62-15.11 1-22.65a36.17 36.17 0 0 0 .08-4.41c-.2.26-.13.77-.15 1.27-.39 8.43-.89 17.11-1.1 25.8-.46-.13-1 .1-1.46 0 .29-5.53.44-11 .78-16.46.28-4.28.24-8.58.6-12.85.27-.26.39.63.79.44s-.66-1-.72-1.21.14-.59 0-.82c.45.26.85.57 1.29.83-.1.36.06 1-.05 1.32 0 .15-.3-.19-.41.06s.23.31.33.63-.09.49 0 .73c.25 0 0-.28.17-.42s.34.4.64.21c.07-.37-.59-.66-.66-.94 0-.13.11-.4.12-.59s-.11-.59.08-.82c.23-.07.44.16.64.3s.48.26.56.44c.31.51-.13 1.19.03 1.94zm-5.95-6.91c.18-.17.33-.65.65-1.06a14.74 14.74 0 0 0 1.42-1.81l1.45.14c-.75 1.35-1.79 2.44-2.59 3.75-.23-.42-1.22-.35-1.16-.88 0-.15.07-.01.21-.13zm-.28 0a11.24 11.24 0 0 1-.79-1 13.7 13.7 0 0 1 1.45-2c.46.1 1 0 1.37.1-.65 1.02-1.44 1.88-2.05 2.92zm2.28-.11c.08-.11.12-.34.17-.41s.34-.25.49-.42c.5-.6.8-1.39 1.19-1.8.46.05 1 .07 1.41.14.09.13-.12.27-.22.42-.85 1.25-2 2.57-2.82 3.93-.29-.22-1-.28-1.06-.61s.53-.83.82-1.23zm2.74-1.29c.23-.3.72-.7.7-1.2a12 12 0 0 1 1.87 0 .93.93 0 0 0 .22-.1 2.92 2.92 0 0 0 1.33.24 21 21 0 0 1-2 2.87c-.69 1-1.46 1.88-2.07 2.87a4.89 4.89 0 0 1-1.16-.74c1.16-1.71 2.58-3.17 3.66-5a21.75 21.75 0 0 0-2 2.37c-.44.55-.8 1.22-1.24 1.71a2.92 2.92 0 0 0-.57.79c-.45-.11-.66-.46-1.11-.56a29.08 29.08 0 0 1 2.35-3.23zm4.89-1.3c.21-.57.72-.86.92-1.44.46.2.64.7 1 1-.27.66-.94.45-1.94.45zm2-.28a.93.93 0 0 1 .47.4c-.32 0-.46 0-.69-.07-.01-.11.21-.11.19-.31zm-2.23.29a6.25 6.25 0 0 1-1.55-.1A22.23 22.23 0 0 1 55 31.36c.19.12.86.68.88.89.04.57-.9.93-.96 1.57zm-.67 6.07c1.22-1.58 2.78-3.58 3.7-4.92 0-.06.05-.14.18-.14a5.13 5.13 0 0 1 .14 2.14c-.05.15-.26.26-.35.37-.69.88-1.34 1.94-2.07 2.92a7.4 7.4 0 0 0-1.41 2c1.37-1.38 2.48-3.39 3.84-4.92 0 .6.27 1.15.09 1.68a5.94 5.94 0 0 1-.71.88c-.47.62-.9 1.13-1.37 1.77a6.86 6.86 0 0 0-.83 1.33 13.27 13.27 0 0 1-1.76-1.09c-.17-.1-.65-.19-.69-.39s1.04-1.43 1.22-1.7zm4.2 2.67a11.29 11.29 0 0 1 .11 2.37c-.19 0-.27-.15-.42-.22a21 21 0 0 0 .29-2.18zm-.14-13.29c-.23.37-.68.76-1.06 1.3-.22.31-.69 1.3-1 1.3s-.67-.75-.89-.84a10.75 10.75 0 0 1 1.15-1.57c.08-.12.08-.3.17-.42s.38-.35.53-.56a6.1 6.1 0 0 0 1.27-1.94 6.27 6.27 0 0 0-.88 1c-.4.56-.73 1.13-1.19 1.67s-.84 1-1.24 1.58c-.1-.17-.84-.56-.88-.85s.77-1.21 1-1.43c.42-.48.75-.92 1.07-1.3a19.82 19.82 0 0 1 2.12-2.6c-.09 1.42.49 3.57-.19 4.63zm-3.39 1.83a16.48 16.48 0 0 1-1 1.39c-.33.45-.72.59-.74 1.16-.63 0-1.05-.06-1.69-.1.77-1.14 1.63-2.21 2.42-3.33a4.35 4.35 0 0 1 1.01.88zm-3.63 2.41c-.56-.09-1.08.07-1.46-.19.9-1.52 2.18-2.66 3-4.22-.33-.09-.4.32-.54.52-.6.84-1.42 1.76-2.07 2.64-.19.25-.45.48-.58.7s0 .24-.13.32c-.37.26-1.13-.13-1.63 0 1.25-1.82 2.58-3.59 3.87-5.37.49.32.74.9 1.35 1.1.06.48.44.63.66.94-.72 1.32-1.77 2.29-2.51 3.56zm-.65-4.31c-.76 1-1.23 1.63-2 2.74-.25.36-.72 1.21-1.06 1.3s-1-.2-1.23-.06a5.81 5.81 0 0 1 1.27-1.94c.57-.75 1.18-1.52 1.72-2.32.28-.41.52-.85.79-1.21s.58-.41.66-.83c.1.25.81.55.84.89s-.77 1.05-1.03 1.43zm-2.72 1.16c-.67.91-1.3 1.82-2 2.74a10.17 10.17 0 0 1-1.5-.11c1.65-2.45 3.54-4.68 5.2-7.13a7.42 7.42 0 0 1 1 .88c-.83 1.26-1.82 2.41-2.7 3.62zm-2.34 8.21a2 2 0 0 1 .16-.69c.46.05.34.7.75.8.24 0 .16-.3.41-.14a.75.75 0 0 0 .2.9 17.2 17.2 0 0 0-.18 3.38c-.07 1.61-.3 3.23-.34 4.84-.15 6.29-.55 12.65-.72 19 .28-.33.18-.84.2-1.23.06-1.3.06-2.64.13-4 0-.89 0-1.82.11-2.68.18-1.4.16-3.29.25-5 .22-4.11.42-7.93.57-12a10.79 10.79 0 0 1 .18-2.19c.24.07.21.43.55.4.27-.53-.39-.78-.57-1.13a4.49 4.49 0 0 1 1.33.7 3.21 3.21 0 0 1 0 .63c-.12.1-.36-.21-.5.06s.28.37.43.63a9.12 9.12 0 0 0-.08 2.14c0 .77-.13 1.55-.17 2.33-.44 7.87-.73 17.21-1.12 25.2-.91.11-2 0-2.87 0 .28-10.21.84-21.58 1.25-31.95zM47 71.26c2 .13 4-.22 5.74.14a42 42 0 0 1-7.51-.19 6.19 6.19 0 0 1 1.74.05zm5-.58a8.18 8.18 0 0 0 .15-1.59 3.3 3.3 0 0 0-.09-1.59c-.2.92-.14 2.31-.24 3.19a8.92 8.92 0 0 0-1.41 0c0-1.82.16-3.67.18-5.6 0-.39-.05-.8 0-1.18.44-6.46.6-13 1-19.56.11-.18.4.52.64.26s-.58-.67-.7-1c.32-.56 0-1.46.26-2.06.34.12.73.58 1.21.7 0 .91-.05 1.74-.08 2.6-.11.22-.37-.22-.5.06s.39.49.52.71c-.23 2.64-.16 5.83-.34 8.7-.26 4.35-.45 8.67-.5 12.9.3-.33.18-.83.19-1.23.11-2.62.23-5.38.36-8 0-.46-.06-.92 0-1.37.22-3.54.35-7.17.47-10.66.09-.22.22.28.46.21.21-.4-.29-.74-.52-1 .23-.73.07-1.86.25-2.64.48.17.78.52 1.25.7 0 .93 0 2-.15 3-.14.2-.42-.22-.55.11s.41.49.57.76c-.59 7.87-.71 16-1.12 23.56a7.11 7.11 0 0 0-1.3.02zm2.49-23.23c.1-.31.3.25.5 0s-.35-.47-.42-.72c-.2-.65.3-2.5.14-3.28.3.16 1.23.49 1.25.92a15.9 15.9 0 0 1-.05 1.64c0 .59.1 1.43-.09 1.69s0 0-.23 0c-.9-.21.27 1 .43 1 0 .08 0 0-.09 0-.31.15-.24 3-.23 3.46 0 1.34-.1 2.72-.13 4.06 0 1.55-.18 2.93-.25 4.65-.14 3.46-.36 6.66-.49 9.75-.46.06-.87 0-1.42 0 .51-8.08.59-15.32 1.09-23.17zm4.58-10.08a11.08 11.08 0 0 1-.2-2.72h.14c-.09 1.17.2 1.84.07 2.72zm-.09.1c.31.7.07 1.72.25 2.59-.31-.72-.13-1.66-.24-2.59zm-8.69-15c.27-.36.67-.62.93-1s.69-1 1.06-1.48.7-1 1.06-1.44.77-.91 1.15-1.39.68-1 1.05-1.44c.14-.17.36-.26.49-.42s.17-.41.31-.6.6-.54.8-.84.3-.89.56-1.29c0 0 .08 0 .09.09.12 1.48.17 2.93.33 4.18-1.27 1.78-2.73 3.38-3.93 5.24.33-.05.48-.43.68-.65 1.08-1.28 2.11-2.83 3.22-4.13 0 .59.32 1.2.13 1.9 0 .13-.13.12-.22.24s0 .18-.09.27-.36.31-.48.47-.24.49-.35.65c-.37.48-.84.87-1.15 1.3-.09.11-.09.31-.18.41s-.33.23-.44.38-.21.42-.35.6a33.55 33.55 0 0 0-3 4 4.39 4.39 0 0 0 1-1.2c.79-1.05 1.63-2.13 2.47-3.2.46-.6 1.06-1.24 1.51-1.91.07-.12.08-.3.17-.41s.35-.29.49-.47.25-.63.57-.6a12.62 12.62 0 0 1 .09 1.86c-.11.44-.69.82-1 1.21s-.28.49-.44.69-.4.37-.34.65c.76-.52.95-1.58 1.77-2.05-.08.64.29 1.45.09 2.05a7.46 7.46 0 0 1-.66.88c-1.22 1.49-2.51 3.21-3.8 4.69-1.06-1-1.95-2.13-3-3.07 1.05-1.43 2.17-2.79 3.12-4.31-.38.16-.57.61-.84.93a30.36 30.36 0 0 0-2.29 3.24c-.7-.63-1.33-1.34-2-2 .56-.68.94-1.43 1.43-2.07zm-.79 3.2c-1.72 2.48-3.66 4.75-5.28 7.33a4.39 4.39 0 0 1-1.42-.11c1.05-1.51 2.07-2.91 3.31-4.59.36-.49.76-1.12 1.23-1.66a5.61 5.61 0 0 0 1.19-1.81c.44.13.63.55.98.8zm-13.9-14c.55.16 1 1 1.44 1.37.1.1.34.19.42.27s.1.25.19.35c.36.42.85.82 1.26 1.25 2 2.13 4.3 4.3 6.34 6.53a23.45 23.45 0 0 0 2.06 2.05c.12.1 1 .82 1 1.07s-.43.76-.66 1.06c-.75 1-1.5 2.06-2.2 3s-1.39 1.95-2.16 3c-.21.29-.67.75-.7 1s.18.4.1.59c-.23-.37-.6-1.16-.87-.34-1.13 0-2.38-.27-3.47-.28-.31 0-.51.14-.77 0a44.91 44.91 0 0 1 .65-4.93c1-.1.35-1.18.13-2.05-.34-1.38-.52-2.25-.86-3.48-.09-.37-.19-.76-.29-1.14-.45-1.69-.76-3.57-1.18-5.16a6.52 6.52 0 0 1-.27-1.72c0-.62-.27-1.25-.22-1.77.01-.37.11-.52.07-.75zm1.05 20.87c-.05-.39 0-.94 0-1.46 0-.3-.13-.54-.06-.78s.09 0 .18-.14c.23-.29.24-.85.42-1.28s.44-.61.43-1c-.45.32-.62 1.38-1 1.94a5.84 5.84 0 0 1 .15-3.28c-.18 0-.22.41-.36.33-.14-.65 0-1.79-.16-2.82a.34.34 0 0 0 .19 0c.24-.48.35-1.09.6-1.56a5.21 5.21 0 0 1 .54 1.9c-.06.76-.88 1.34-.72 2 .34-.08.21-.47.3-.69s.52-.59.47-1c.28.09.15.34.2.54a3.65 3.65 0 0 1 .26 1.4c0 .19-.23.33-.26.51s.09.13.1.18a3.31 3.31 0 0 1-.12.87c-.18 1.29-.48 2.91-.62 4.2-.19-.02-.43.11-.53.06zm.33.4c-.05.31-.09.62-.16.91-.19-.15 0-.66-.3-.72.07-.31.23-.39.47-.31zM33.55 47.5a5.76 5.76 0 0 1-.55 1.56c-2.23 5.38-4.42 10.88-6.53 16.36-.78 2-1.71 4-2.31 6a9.6 9.6 0 0 1-1.5 0c1.39-4.2 3.33-8.09 4.89-12.19.77-2 1.59-4.1 2.45-6.11.51-1.2 1.07-2.62 1.54-3.91.34-.9.76-1.77 1-2.71a2.49 2.49 0 0 0-.61 1c-.54 1.17-.9 2.42-1.46 3.63-.36.77-.64 1.62-.94 2.43s-.69 1.6-1 2.4c-.61 1.59-1.24 3.25-1.88 4.87-.54 1.37-1.2 2.81-1.77 4.18-.07.19-.2.39-.25.55s0 .21 0 .28c-.18.44-.46.83-.65 1.29-.55 1.36-1 2.85-1.58 4.22a3.39 3.39 0 0 1-1.23 0c-.19-.34.09-.6.21-.87.21-.53.37-1.1.59-1.65s.52-1.06.69-1.57.32-1.14.55-1.7c.54-1.28 1.14-2.47 1.64-3.81 1.08-2.87 2.32-5.9 3.52-8.79.18-.43.32-.89.52-1.33.27-.59.53-1.16.77-1.7s.25-.87.43-1.28c.08-.2.26-.36.35-.56.23-.54.34-1.17.55-1.75.15-.4.66-.86.33-1.32-3.51 8.82-7.06 17.59-10.6 26.39-.39-.05-.85 0-1.19 0a63.55 63.55 0 0 1 2.74-7.17c1-2.35 1.87-4.69 2.79-7 1.75-4.46 3.61-8.85 5.37-13.38.14 0 .27 0 .31-.1 0-.4-.21-.52-.43-.81s-.37-.64-.51-.67a1.26 1.26 0 0 0-.63.34 6.15 6.15 0 0 0-.31.73c-.6 1.44-1.13 2.92-1.75 4.37-.11.23-.28.45-.35.65s-.05.47-.12.68-.23.35-.31.56c-.19.46-.27 1-.46 1.46s-.39.9-.61 1.38c-.9 2-1.83 4.29-2.62 6.4-.67 1.76-1.51 3.57-2.14 5.42.29-.09.38-.46.48-.7 1.39-3.15 2.54-6.59 3.91-9.83.38-.93.82-1.83 1.2-2.76 1.15-2.79 2.1-5.68 3.4-8.37.15.23.75.73.8 1.07a7.77 7.77 0 0 1-.6 1.66c-.62 1.58-1.38 3.29-2 4.73-.68 1.65-1.2 3.24-1.93 4.78-.44.91-.72 1.82-1.08 2.76-.81 2.16-1.7 4.33-2.61 6.53-.21.5-.39 1-.6 1.52-.49 1.14-1 2.34-1.46 3.58a13.17 13.17 0 0 0-.68 2.16c-.58 0-1.06.07-1.45 0 .71-2.3 1.81-4.61 2.65-6.94-.39.09-.49.73-.66 1.16-.34.87-.68 1.78-1.07 2.71-.18.43-.42.87-.56 1.29-.06.17 0 .39-.08.55-.14.39-.51.72-.47 1.15-1.12.16-2-.11-3.05 0a17.53 17.53 0 0 1 1.15-3.08c.41-1 .74-2 1.16-3a13.27 13.27 0 0 0 .77-1.89 8.62 8.62 0 0 1 .39-.83c.75-1.76 1.41-3.75 2.19-5.56a5.33 5.33 0 0 0 .68-1.83 10.65 10.65 0 0 0-1 2.21c-.47 1.21-1 2.45-1.45 3.67-1.36 3.34-2.8 6.77-4.08 10.25-.94.16-2.13-.09-3.14 0 1.1-2.54 2.08-5.13 3.09-7.73.88-2.25 1.8-4.47 2.75-6.71s1.77-4.49 2.62-6.66c.47-1.21 1.1-2.63 1.63-3.91 1.26-3.06 2.57-6.21 3.87-9.29.2-.16.31.22.55 0a.4.4 0 0 0-.15-.45c.29 0 1.16.36.7.8-.14.11-.26-.34-.5-.12s.27.52.29.72a4.56 4.56 0 0 1-.34 1c-.13.33-.29.68-.39.92-.29.69-.61 1.3-.82 1.79s-.21.81-.38 1.19c-.57 1.29-1.08 2.6-1.59 4s-1.28 3-1.85 4.41c-1.42 3.62-2.76 7.32-4.33 10.9-1.27 2.87-2.43 5.88-3.52 9a7.48 7.48 0 0 0 .87-1.8c.37-.94.69-1.87 1.07-2.85s.82-1.79 1.21-2.71.54-1.6.85-2.39.71-1.49 1-2.25c.87-2.36 1.89-4.61 2.75-6.94a7.43 7.43 0 0 1 .35-.69c.08-.21.07-.47.16-.69.87-2.17 1.92-4.44 2.75-6.71.73-2 1.6-3.9 2.41-5.8.2.08.23.56.56.4s-.4-.53-.43-.9.3-.36.21-.64c.1.33 1 .66 1.11 1s-.28.48-.25.87c-.13.14-.4-.09-.55.06s.23.52.16.86a8.86 8.86 0 0 1-.43.92c-1.76 4.7-4.06 9.51-5.71 14.25a8.83 8.83 0 0 0 .78-1.57c.57-1.38 1.12-2.77 1.67-4.18 1.26-3.13 2.62-6.38 3.92-9.52.28.13.3.67.65.63.66-.09-.35-.79-.39-1.18-.06-.54.48-.54.34-1 .26.3.86.39 1 .75.18.54-.39.89-.37 1.47-.05.14-.38 0-.5.19.3.41 0 .64-.2 1.05-.09.23-.13.55-.25.83-.3.69-.59 1.67-.86 2.34-.17.44-.43.85-.6 1.29-1.18 3-2.55 6.09-3.74 9.24-1.42 3.75-3 7.33-4.46 11.08-.31.8-.67 1.61-1 2.39a10.48 10.48 0 0 0-.9 2.39c.37-.25.42-.74.56-1.11.91-2.25 1.83-4.51 2.75-6.85.52-1.31 1.05-2.53 1.59-3.81.28-.65.5-1.33.77-2 1.16-2.72 2.18-5.56 3.4-8.32s2.06-5.37 3.27-8c.47.14.39 1.25 1.11.88.43-.22.65-1.58.95-2a6.2 6.2 0 0 1 1.07.8c.37.26 1.13.53 1.07 1.06a3.47 3.47 0 0 1-.25.69c-.28.64-.53 1.37-.82 1.93-.3-.1-.25-.79-.7-.57-.21.4 1.3 1.81.84.71a20.7 20.7 0 0 0 1.16-2.85c.33.24.88.35 1 .7s-.32 1.13-.55 1.65a8.56 8.56 0 0 0-.59 1.65c-.42 0-.3-.59-.7-.61-.14.54.56 1.65 1.21 1.1 0-.29-.4-.07-.42-.31a23.77 23.77 0 0 0 1.29-3.35 8.8 8.8 0 0 1 1.06.75c-.39 1.3-.91 2.48-1.37 3.72-.34-.08-.32-.53-.74-.53-.26.23.44.52.48.78zM11.23 71.16c-.53-.06-1-.06-1.42-.1 1.38-4 3.28-8 4.77-11.95 1.2-3.23 2.54-6.37 3.81-9.65.94-2.41 2.09-4.84 3.06-7.27s1.83-4.58 2.75-6.85a1.91 1.91 0 0 1 .94 1.16 6.26 6.26 0 0 1-.43 1.1c-1 2.49-2.19 5.12-3.1 7.54-.55 1.47-1.19 2.89-1.76 4.33-2.82 7.09-5.93 14.29-8.61 21.61zm24.38-45.93a8.38 8.38 0 0 1-.57 1 1.81 1.81 0 0 0-.21.73 4 4 0 0 0-.7 1.34c-.19.45-.47.88-.69 1.33-.45.91-.8 1.9-1.3 2.77-.18.3-.54.5-.48.92.87-.76 1.15-2 1.74-3.23.22-.46.52-.91.74-1.38a4.59 4.59 0 0 0 .69-1.7c.41-.37.51-1 .87-1.44-.15.81.22 1.64.07 2.55a8 8 0 0 1-.43 1.11c-.34.84-.85 1.68-1.22 2.53-.54 1.27-1.19 2.6-1.81 3.91a31.75 31.75 0 0 1-1.65 3.36 7.53 7.53 0 0 1-1.15-.74 22.7 22.7 0 0 0 1.33-3 16.74 16.74 0 0 0-1.47 2.86c-.27-.29-1-.42-1.07-.79s.67-1.3.87-1.71.39-1 .64-1.51c.81-1.55 1.52-3.32 2.34-5 .32-.63.7-1.21 1-1.84.12-.24.18-.5.31-.74.29-.58.74-1.33 1-2a8.22 8.22 0 0 1 .95-2h.1c-.09 1.04.3 1.85.11 2.59zm-5.34 14.6a15.44 15.44 0 0 1-.68 1.93c-.46-.25-.61-.82-1-1.15a6.26 6.26 0 0 0 .68-1.48 4.35 4.35 0 0 1 1.01.62zm5.3-1.08c0 .21-.22.32-.3.51-.37.75-.62 1.7-1 2.39a2.57 2.57 0 0 1-1.11-.79c.85-1.36 1.36-3 2.17-4.42h.14c-.09.77.26 1.43.11 2.23zm-1.2 3.08a18.32 18.32 0 0 1 1.13-2.21 7.77 7.77 0 0 1 .07 2.91c-.51-.19-.76-.58-1.19-.78zm1-9.26v.36a19 19 0 0 1-1 2c-.32.69-.69 1.35-.95 2 .28.08.31-.31.4-.46.53-.93 1.05-2.21 1.56-3.18-.06.83.26 1.59.15 2.27a6.22 6.22 0 0 1-.43 1.11c-.47 1.05-1.12 2.09-1.61 3.13-.15.31-.15.66-.39.92a2.88 2.88 0 0 1-1-.66 23 23 0 0 0 1.29-2.9 3.2 3.2 0 0 0-.78 1.29c-.22.51-.47 1-.65 1.52a4.23 4.23 0 0 1-1.06-.75c1.56-3.51 3.29-6.87 4.84-10.4h.14c-.2.78.25 1.81.11 2.5a12.37 12.37 0 0 1-.65 1.17zm.58-.56c.1 0 .09.24.14.36a.37.37 0 0 1-.27 0c0-.24.1-.3.1-.44zm.29-10.57c0-.15-.14-.26-.1-.41s.41-.31.39-.55a6 6 0 0 1 .5 1.67 4 4 0 0 1-.56 1.24c-.08.17 0 .36-.22.41a18.58 18.58 0 0 1-.04-2.44zm-.07-.91a6.41 6.41 0 0 1-.09-1.86c.2.48.48 1.3.06 1.78zm-.16 12.43h.14c0 1.27.12 2.8.1 4.05-.18-.85-.17-2.14-.26-3.18-.07-.44-.23-.73-.01-.95zm.25 4.27a7.34 7.34 0 0 1 .09 2.19 7 7 0 0 1-.12-2.27zm.07 2.87c.13 0 .08.19.1.32-.21-.04-.1-.3-.13-.4zm-7.86-6.68c.4-.17.37-.61.52-1s.45-.84.66-1.25.54-.77.7-1.15c.06-.15 0-.36.07-.51a16.45 16.45 0 0 1 .78-1.65c.83-1.66 1.71-3.46 2.52-5.21a24 24 0 0 0 1.59-3.68c.08.22.12.47.38.5-.54.33 0 1.66-.17 2.37a7.55 7.55 0 0 1-.61 1.1c-.16.34-.23.72-.38 1.06-1.22 2.64-2.64 5.36-3.91 8-.59 1.24-1.1 2.53-1.82 3.92a5 5 0 0 1-.7 1.2c-.25.06-1-.63-1.19-.75-.46-.33-.82-.62-1.12-.83 1.29-2.64 2.61-5.26 3.86-7.93.42-.89.77-1.84 1.21-2.71 1.48-2.91 2.95-5.82 4.29-8.8a15.44 15.44 0 0 1 .2 2.5c-.24.11-.18.33-.26.64a20.76 20.76 0 0 1-.95 2.07c-.05.13 0 .3-.08.41-.39.88-1 1.7-1.4 2.59-.78 1.8-1.66 3.66-2.55 5.43-.45.89-.93 1.76-1.34 2.72-.16.24-.4.55-.33.88zm-5.45-1.24c-.15-.17-.36-.17-.37-.49s.23-.35.35-.55c.24-.44.45-1.13.64-1.57-.37 0-.41.55-.57.88s-.4.67-.52 1c-.07-.25-.72-.75-.76-1.07s.59-1.28.78-1.75c.65-1.58 1.59-3.27 2.12-4.74a11.34 11.34 0 0 0-1.39 2.76c-.07.15-.2.23-.27.37a15.51 15.51 0 0 1-1.52 3c-.07-.59-.61-.74-.66-1.17s.48-.69.47-1.29c-.34 0-.39.67-.62.93-.18 0-.18-.27-.32-.36.34-.27.55-.83 1.11-.75 0-.23-.22-.26-.15-.59-.56.19-.73.75-1.2 1-.44-.52 0-.92.28-1.56 1-2 1.87-4 2.86-6.12.23-.49.38-.83.6-1.38.13-.33.42-.6.57-.93.34-.73.59-1.47.91-2.11-.46.34-.64 1.13-.92 1.66s-.62 1.05-.92 1.62c-.57 1.08-1.05 2.27-1.6 3.4-.71 1.46-1.36 3.13-2.16 4.56-.21-.26-.64-.58-.66-.94 0-.21.21-.47.3-.69s.17-.56.3-.83c.85-1.73 1.81-3.68 2.68-5.57a2.57 2.57 0 0 0 .43-1.05 14.63 14.63 0 0 0 1.35-2.68c.81-1.56 1.51-3.18 2.34-4.79.29-.55.49-1.08.78-1.66.54-1.06 1.14-2.13 1.65-3.18.3-.61.51-1.27.78-1.88a15.81 15.81 0 0 1 1.13-2.08c.18.38.58.82.53 1.26s-.51.47-.34.83c.29 0 .24-.33.39-.46.11.5.65 1 .63 1.57a10.13 10.13 0 0 1-.55 1.47c-.1.22-.27.41-.35.6-.88 2-1.9 3.91-2.82 5.9-1.88 4.1-4.18 8.58-6.07 12.48 0 .2.14.18.15.32-.3.36-1 .55-.79 1.24a2.58 2.58 0 0 0 .67-.65c.18-.2.5-.42.48-.78-.08-.2-.1.05-.28 0 .52-1.21 1.16-2.31 1.69-3.5.85-1.84 1.83-3.73 2.69-5.62 1-2.2 2.28-4.43 3.3-6.72.37-.83.73-1.68 1.07-2.49a5.25 5.25 0 0 1 1-1.75c0 .43.53 1.21.5 1.67a5.29 5.29 0 0 1-.61 1.25c-1.1 2.33-2.21 4.79-3.37 7.13-.49 1-1 2-1.44 3a18 18 0 0 0-1.24 3 21.1 21.1 0 0 0 1.43-2.9c.87-1.93 1.85-3.86 2.77-5.8.24-.5.46-1 .69-1.48.61-1.26 1.17-2.56 1.87-3.78 0 .53.64 1.1.59 1.68 0 .12-.16.2-.27.41a3.73 3.73 0 0 0-.12.5c-.18.41-.52.9-.74 1.39-.42.94-.94 2-1.43 2.95-.31.61-.5 1.25-.78 1.84-.36.79-1.12 1.51-.8 2.38.29-.11.52-.45.75-.7s.61-.52.35-.92c-.36.11-.4.52-.76.61 1.26-2.7 2.41-5.52 3.85-8.06.33.35.31 1 .58 1.45 0 .14-.17.1-.17.23-.24 1.1-1 2-1.21 2.94.63-.73.79-1.92 1.4-2.67.25.19.29.62.43.94-.21.15-1.07.73-.84 1.3.47-.17.67-.82.93-1 .25.47-.06.79-.28 1.33-.59 1.42-1.35 3.06-2 4.46-.08.17-.24.31-.31.47a3.82 3.82 0 0 1-.3.64c-.37.59-.55 1.32-.87 1.89.45-.27.55-1 .83-1.48a7.76 7.76 0 0 0 .57-1.06 27 27 0 0 1 1.35-2.76 19.14 19.14 0 0 1 1.21-2.54 2.37 2.37 0 0 1 .45 1.72 8.85 8.85 0 0 1-.91 2.3c-.3.62-.51 1.3-.77 1.84s-.57 1-.83 1.52c-.62 1.29-1.27 2.59-1.9 4-.83 1.79-1.87 3.78-2.74 5.62-.19.42-.44.76-.65 1.16-.67 1.28-.95 2.62-1.69 3.77-.26-.31-1-.32-1.06-.7s.56-1.12.7-1.43.09-.55.16-.73c.16-.42.59-.68.52-1.11a19.07 19.07 0 0 0-1.52 3c-.21-.11-.29-.35-.43-.58s-.49-.46-.38-1a5.08 5.08 0 0 1 .65-1.2c.38-.68.82-1.54 1.17-2.31s.83-1.72 1.26-2.66a17.43 17.43 0 0 1 .77-1.75c.1-.17.28-.26.36-.42s0-.25 0-.37c.1-.29.33-.6.47-.92s.29-.65.44-1c.29-.64.7-1.22.95-1.8.13-.3.13-.61.26-.88s.19-.22.26-.36c.45-.95.88-2 1.39-2.95 0-.15-.13-.09-.15-.18.14-.22.5-.39.31-.78-.34 0-.58.56-.8.79s-.58.27-.35.78c.33-.11.4-.47.71-.6-.63 1.55-1.38 3.11-2.12 4.6-.1.2-.11.44-.21.64-.38.73-.81 1.4-1.13 2.12-.05.11 0 .26-.08.37s-.21.2-.27.32c-.15.31-.19.7-.34 1-.06.13-.22.21-.26.33-.43 1.11-1 2.26-1.56 3.36s-1 2.1-1.52 3a1.69 1.69 0 0 0-.39.83c-.38-.11-.39-.6-.58-.83zm1 3.07Q16.73 53.09 9.6 71.06H8.23c1.14-3 2.32-6.07 3.6-9.1s2.34-6 3.61-9.06c1.54-3.69 3-7.6 4.64-11.27.67-1.48 1.16-3 1.76-4.54.12-.34.37-.69.51-1.06.23-.57.25-1.09.61-1.43a2.73 2.73 0 0 1 1.06.57zM3.58 70.98c-.12-.31.13-.64.16-1-.31.17-.28.73-.43.92a4.47 4.47 0 0 1-1.32-.06c.74-2.23 1.71-4.39 2.62-6.57 1.36-3.27 2.54-6.61 3.9-9.88s2.69-6.48 4-9.75c.08-.2.08-.44.16-.64 1.34-3 2.52-6.36 3.87-9.43.37-.83.6-1.64 1-2.57a6 6 0 0 0 .38-1.18c.8.53 1.54 1.12 2.36 1.63-.83 1.64-1.43 3.52-2.2 5.33-.54 1.27-1 2.52-1.54 3.82-1.05 2.52-2.15 5.26-3.13 7.9-.86 2.3-1.94 4.55-2.84 6.85s-1.82 4.62-2.84 6.9c-.5 1.12-.86 2.36-1.32 3.54-.23.57-.52 1.13-.74 1.7-.11.29-.12.65-.25 1s-.56.76-.42 1.38a14.57 14.57 0 0 0-1.42.03zm1.55 0c1.75-4.85 3.69-9.6 5.66-14.38s3.92-9.43 5.8-14.25c.62-1.59 1.28-3.18 1.89-4.78.44-1.19 1-2.33 1.46-3.54.18-.45.35-.84.51-1.29a12.32 12.32 0 0 1 1.07.79c-.77 1.84-1.52 3.74-2.32 5.61a7.33 7.33 0 0 1-.82 1.8 40.45 40.45 0 0 1-1.41 3.86c-1.44 3.67-3.17 7.39-4.55 11.17-.93 2.52-2 5-3 7.49s-2 5-2.91 7.54a12.09 12.09 0 0 1-1.38-.18zm1.6.06a15.49 15.49 0 0 1 1.11-2.94c.81-2 1.57-4 2.4-6.12 1.66-4.19 3.39-8.52 5.06-12.77.5-1.26 1.14-2.51 1.64-3.82 1.35-3.57 2.85-7 4.34-10.58.18-.43.22-1.05.47-1.1s.85.48.89.66a5.3 5.3 0 0 1-.34 1.15c-.4 1-.9 2.18-1.29 3.17-1.45 3.62-2.85 6.94-4.3 10.57-.6 1.51-1.16 3-1.8 4.6-.33.81-.71 1.58-1 2.39s-.6 1.71-.94 2.53c-1.66 4-3.37 8.12-4.94 12.27a8.89 8.89 0 0 0-1.3-.13zm11.64 1.54c-.45 0-1.28-.16-2-.14a14.45 14.45 0 0 1-1.91-.09c-.09-.08 0-.08 0-.23-.56.36-2 0-2.68 0-.31 0-.64.06-.91 0l-2.89-.43a7.76 7.76 0 0 1 2.14 0c.24 0 .49-.16.73-.16.55 0 1.14.36 1.78.19 0 .14-.14.13-.08.32.19 0 .14-.22.26-.28a18 18 0 0 1 3.29.15 3.29 3.29 0 0 0 .77 0c.13 0 .29-.15.45-.15.5 0 1.1.3 1.69.14.05.37-.09.53-.64.56zm4-.06a.33.33 0 0 0 0-.36h-.09c-.19 0-.09.34-.22.42-.44 0-1 0-1.5-.06 0-.14.25-.29 0-.36s-.07.31-.17.41a9 9 0 0 1-1.32-.1c0-.74.8-.4 1.26-.58.13 0 .13.15.23.18.49-.23 1.18.25 1.5-.09.39.39 1.1-.1 1.55.19a.48.48 0 0 0 0 .37 9.77 9.77 0 0 1-1.28-.14zm1.5 0c-.22 0 .17-.29-.09-.32.34-.22 1.12 0 1.91 0s1.11-.09 1.5.1a18.54 18.54 0 0 1-3.36.12zm6.9-.86c.23-.85.64-1.68.94-2.48.08-.2.09-.43.17-.64s.24-.3.31-.46c.13-.31.17-.65.29-1 .55-1.36 1.21-2.91 1.81-4.33.25-.59.41-1.19.64-1.79.1-.27.33-.5.44-.78s.14-.59.25-.87a4.08 4.08 0 0 0 .42-1.33 14.61 14.61 0 0 0-1.2 3c-.53 1.32-1.17 2.62-1.73 4-.3.73-.6 1.49-.9 2.25-.56 1.43-1 3-1.67 4.37h-1.36c.33-1.59 1.19-2.68 1.53-4.27a3.11 3.11 0 0 0-.61 1.15c-.37 1-.83 2-1.15 3.08-1.09.07-2.08-.13-3.05 0 2.86-7.45 6-15 9-22.52-.34.06-.49.65-.62 1-.71 2-1.7 4-2.44 6-1.88 5.12-4.21 10.25-6.1 15.4a7.73 7.73 0 0 1-1.36 0c.33-.91.64-1.82 1-2.72s.62-1.82 1-2.7c.58-1.4 1.24-2.76 1.76-4.19s1.19-2.8 1.72-4.23c.91-2.45 1.95-5 3-7.4a17.51 17.51 0 0 0 .86-2.53c.13 0 .27.17.41 0-.18-.86.49-1.63.8-2.57.07-.2.05-.45.12-.64.14-.4.42-.64.43-1h.13c-.07.27-.08.76-.15 1.14-.1.54-.14.61.43.81a4.33 4.33 0 0 1-.63 2.25c-.16.14-.13-.21-.32-.18s-.21.31-.21.55c-.11.09-.32-.06-.41.11.07.3.3.74.52.76.68.06.5-1.64 1-1.8a2.24 2.24 0 0 1 .2 1.18 4.86 4.86 0 0 1-.09 1.87c-.34 1-.82 2-1.24 3.12-.16.43-.35.87-.52 1.29s-.3.94-.46 1.33-.34.41-.44.65c-.53 1.19-.94 2.47-1.41 3.72-1.38 3.63-3.06 7.36-4.38 11 .34-.22.43-.71.56-1.1.95-2.79 2.31-5.5 3.45-8.23.5-1.22.88-2.49 1.36-3.72 1-2.52 2.14-5.16 3.18-7.68a5.27 5.27 0 0 1 .14 1.68c0 .48.2 1.11.12 1.41 0 .09-.19.24-.27.37a31.76 31.76 0 0 0-1.15 3c-1.39 3.38-2.85 6.76-4.12 10.2a28.29 28.29 0 0 0 1.47-3.13c1.13-2.75 2.21-5.55 3.35-8.36a9 9 0 0 1 .68-1.66c.06.57.11 1.23.14 1.87a5.44 5.44 0 0 1 0 1.13c-.06.31-.43.49-.34.83.16.17.19-.35.36-.19 0 .55 0 1.16.09 1.82a5.23 5.23 0 0 1 .07 1.18c0 .17-.4.55-.48.79s-.17.8-.34 1.19c-1.25 2.92-2.46 6.08-3.74 9zm3.69 0a2.47 2.47 0 0 1-.36.19c-.29.05-.79-.09-1.19-.06-.23 0-.4.14-.59 0 1.12-3.59 3-6.89 4.12-10.61h.09c-.15 1.13.38 2.13.12 3.09 0 .16-.2.3-.27.46-.21.59-.32 1.15-.55 1.7a44.93 44.93 0 0 0-2 5.1c.67-1.41 1.38-3 2-4.55.27-.7.32-1.55.86-2 0 1.12.3 2.3 0 3.23a19.56 19.56 0 0 0-1.11 3c.62-.83.74-2.13 1.29-3 0 .92.17 1.87.12 3-.63-.1-1.13.27-1.68.35a7.3 7.3 0 0 0-.89-.04zm1.23.15c.08-.19.21 0 .41 0 .36 0 .88-.35 1 .07-.4-.24-1-.13-1.45-.21zm1.85-8.33c-.17-3.24-.38-6.53-.56-9.86-.22-4.11-.27-8.29-.67-12.41.19-.15.8-.08.91-.34a4.36 4.36 0 0 0-.12-.82c-.07-1-.18-2.28-.17-3.45 0-1.48.55-2.52.28-3.7 0 0 0-.05.09-.05.62.13 1.53.21 2.42.31a11.45 11.45 0 0 0 1.91.13c.19 0 .42-.19.54-.15s.3.52.43.72a11.7 11.7 0 0 1 1.65 2.42c-1-.48-2-1.32-3.19-1.92-.22-.12-1-.68-1.09-.21s.88.63 1 .85-.05.58-.06 1c-.11 2.49-.41 5-.37 7.52 0 1.68-.13 3.81-.27 5.65-.1 1.32-.06 2.66-.13 4-.25 4.5-.31 9.05-.54 13.35a24.73 24.73 0 0 0-.08 4.1c-.22.24-.57-.1-.68.2-.21.52.67.38.92.39a7.61 7.61 0 0 1 1.27.06c.33 0 .63.19 1 .25a29.34 29.34 0 0 0 3.14.24c.69 0 1.4.22 2.15.27.94.05 2 .09 3 .06 1.67 0 3.64-.13 5.36-.31.19 0 2.94-.2 3.18-.12s.65-.12 1.09 0c.16.61 0 1.25.14 1.86-3 .51-6.71.46-10 .79-4 .41-8.12.27-11.87.56 0-2.29-.44-4.91-.49-7.41 0-.64-.1-1.23-.14-1.86s-.06-1.55-.09-2.26zm.1 11.75a1.94 1.94 0 0 1 .86-.07c-.15.03-.71-.03-.9-.07zm2.19 0h-.78a11.45 11.45 0 0 1 2.09-.14 2.92 2.92 0 0 1-1.35-.01zm-1 5.17c.43 0 1.25.21 1.14-.17q.22-.06.18.18c.25-.39 1.3-.12 1.78-.09.71.05 1.52 0 2.27 0 4.91-.12 10.36-.21 15.61-.34 1.23 0 2.44.09 3.64 0 .53 0 1.09.12 1.64.09a6.34 6.34 0 0 1 2.41.08c0 .38-.38.1-.49.1a12.18 12.18 0 0 1-1.51 0 15 15 0 0 0-1.64 0c-.18 0-.34.14-.54.15s-.63 0-1 0-.66-.08-1-.07c-.83 0-1.61.15-2.45.16-.35 0-.69-.13-1.05-.16s-1 0-1.46 0H52.9c-.79 0-1.59.2-2.36.19-.38 0-.77-.17-1.14-.15s-.63.17-.95.16c-.48 0-.93-.15-1.38-.15s-.89.12-1.36.12c-.14 0-.27-.11-.41-.12s-.31.1-.45.1H42.3c-.85 0-1.68.11-2.46.06a14.25 14.25 0 0 0-1.68.08c-.22 0-.57.06-.73-.12.32-.15.77-.25 1.34-.25zm6.7-1.62a1.05 1.05 0 0 1 .86-.07 1 1 0 0 1-.92-.08zm8.5-.3a38.39 38.39 0 0 0 4.15-.06c.06 0 .12-.21.32.09 6-.19 11.34-.41 16.87-.41a64.37 64.37 0 0 1-7.55.32c-.32 0-.65.13-1 .11-.13 0-.24-.08-.37-.08-1.24 0-2.58.07-3.87.1-2.42 0-5 .09-7.55.09a11.5 11.5 0 0 0-1.18.12c-.36 0-.78-.1-1.14-.07a4.07 4.07 0 0 1-.86 0c-.33 0-.6.12-.91.12a4.9 4.9 0 0 1-.55-.13 7.59 7.59 0 0 0-.91.12c-.47 0-.94-.12-1.41-.06a3.45 3.45 0 0 1-1.6 0c2.56-.26 5.05-.46 7.5-.41zm-2.11-2.82a3.83 3.83 0 0 1 1.18-.16c-.24.1-.78-.06-1.24.01zm1.22-.12c0-.11.52 0 .64-.06a1.14 1.14 0 0 1-.7-.09zm.74.39h.23c.05.15-.14.07-.23.1zm1.59-.13h.64c-.19.02-.65.08-.7-.15zm10.55-.57c-.9.08-1.82 0-2.73.11s-1.94.31-2.95.35c-.13 0-.28-.09-.41-.08s-.26.12-.41.14c-.59.07-1.31-.05-1.91 0 .33-.32.71-.14 1.09-.16 4-.24 8.62-.82 12.94-1.27.19 0 .37.05.55 0 .38 0 .82-.28 1.27-.07-2.63.2-5.06.62-7.54.83zm6.18-.33c0-.13.32 0 .32-.1.06-.04-.29.02-.38-.05zm-4.61 1.38h.46c-.08-.06-.51.03-.52-.15zm.42.4c-.1.27-.25 0-.5.15.05-.35.25-.21.41-.3zm-1.84-.63c0-.05.06 0 .1-.05a32.9 32.9 0 0 1 4.22-.42c-1.47.18-3.11.15-4.38.32zm1.07.74c-.05.2-.21.11-.41.1.03-.29.09-.19.35-.25zm-.73-.34a.55.55 0 0 1 .36-.1c-.05.02-.34.02-.42-.05zm3.15-1.13c-1.16.1-2.44.17-3.49.27-.46 0-.91.24-1.36.26-.18 0-.33-.08-.51-.08-.79 0-1.62.2-2.4.24h-1.55c.24-.26.53-.1.81-.11.47 0 1-.15 1.5-.17 1 0 2.1-.25 3.32-.36.47 0 .93 0 1.41-.08 1.43-.17 3.25-.35 4.68-.43.06.1-.23.11-.46.15-.69-.01-1.37.11-2.01.16zm-7 1.08a13.78 13.78 0 0 1 3.41-.4 17.14 17.14 0 0 1-3.45.25zm3.28.11c-.09 0-.46.21-.5 0 .12-.04.28-.29.48-.15zm-3.37-.19c0 .21-.48.17-.59.15.02-.36.25-.26.55-.3zm-1.14.11c-.27.28-.72.09-1.09.12a2 2 0 0 1 1.05-.27zm-1.15-.42c-.25.19-.55.11-.9.16.08-.48.47-.16.86-.35zm-2.36.19a3 3 0 0 1 1.36-.08 2.09 2.09 0 0 1-1.36-.07zm1.24.42c-.09.11-.45.1-.64.07a.65.65 0 0 1 .6-.22zm-1.47-.41c0 .11-.15.09-.27.09s.11-.24.23-.24zm-1.46-.38c.27-.2.83-.13 1.27-.12a2.53 2.53 0 0 1-1.31-.03zm1.05.43c-.07.15-.21.06-.36.06 0-.26.24-.29.32-.21zm17.48-2.15c.2-.14.36 0 .63-.11a1.19 1.19 0 0 1-.67-.04zm0 7.05c0-.22.35 0 .4-.1.08-.02-.4-.02-.45-.05zm-.81.3c-.29.17-.4-.36-.41 0-.14.05-.09-.1-.1-.18-.25 0-.3 0-.36.19-2.4-.06-4.78 0-7.29-.05 0 0 0-.08.09-.09 2.58-.07 5.92-.26 8.69-.17-.07.11-.34 0-.5.06s.01.07-.15.09zm-4.59-1.35c0 .59-.67.2-.42-.13.09-.1.29-.16.37-.02zm-7.21-.82c-.12.1-.44 0-.64.06.1-.3.41-.24.59-.21zm-.82 0c.05 0-.54.24-.5 0 .15-.2.23-.09.45-.14zm-1.14.12c-.77.05-.89 0-1.64 0a2.62 2.62 0 0 1 1.59-.14zm-2.55-.07c0 .1-.27.13-.36.05s.25-.25.31-.19zm-21 .92c-.06.06-.07.27.06.27 0 .1-.28.05-.32 0 .05-.21-.02-.46.2-.41zm-1.76.36a2 2 0 0 0-.51-.08c-.12-.22.46-.23.45-.06zm-11.53-.27c0 .18-.15 0-.31.05-.01-.26.14-.23.25-.19zm-.77 0c-.24.17-.49 0-.72.11 0-.37.44-.22.66-.28zm-.76.39c0 .14-.23.08-.37.1-.09-.35.19-.23.31-.27zm-1.27.48a11.58 11.58 0 0 0 1.86 0c2.33 0 4.74-.05 7.33-.18a16 16 0 0 1 1.82 0c1.22.08 2.49-.07 3.73-.09.29 0 .59.12.87.11.55 0 1.11-.09 1.68-.09.74 0 1.48-.11 2.14-.14s1.6.14 2.46.13c.42 0 .85-.07 1.27-.08a33.59 33.59 0 0 1 4.14 0 4 4 0 0 1 .42.13c.44.06 1-.1 1.45-.09 1.76.06 4.08 0 6.1-.05 1.82 0 3.43-.11 5.46-.09.76 0 1.43-.08 2.09-.1 1.15 0 2.32.15 3.46.15 1.77 0 3.73-.12 5.51 0a20 20 0 0 1-4.05.19c-1.37.07-2.9.31-4 .27s-2.61 0-3.69 0a9.66 9.66 0 0 1-1.32 0 27.1 27.1 0 0 0-3.32.17c-.48 0-.89-.31-1 .11-.2-.15-.39 0-.59.06s-.43-.07-.64-.07c-.52 0-1.07.14-1.55.13-.19 0-.37-.12-.55-.13-.52 0-1.12.11-1.77.14s-1-.15-1.55-.1a8.27 8.27 0 0 1-2.27 0c.28-.19.81 0 1.13-.3-1.2-.05-2.4-.13-3.6-.14-.54 0-1.06.16-1.59.18s-.89 0-1.37 0-1-.11-1.46 0c-.12 0-.27.12-.4.15a5.55 5.55 0 0 1-1.05-.07 38.51 38.51 0 0 0-3.86.19c-.47 0-.92-.14-1.37-.11a53.76 53.76 0 0 1-6.1.1c-.21 0 .1-.16.13-.23-.46 0-1.17-.26-1.5.08.16.23.5 0 .82.17-.27.29-.62-.13-1 .11-.09 0 .09-.24-.1-.27-1.52 0-3.56-.11-5.28-.05.23-.59.75-.4 1.05-.36zm38.25.26c-.14.1-.44 0-.59.11.05-.37.37-.29.53-.28zm-13 0c-.67.51-1.33.27-2.22.29s-2.31.16-3.32.12h-2a8.71 8.71 0 0 1-1.6.13 2.46 2.46 0 0 0-.41-.13c-.7-.08-1.48.23-2.27.19h-2.09c-.51 0-1 .08-1.46.08a10.82 10.82 0 0 0-1.37-.15c-1.58.2-3.53 0-5.18.13a5.5 5.5 0 0 1 2.27-.2c3.63-.1 7.15-.27 10.69-.21.78 0 1.57-.17 2.36-.2 1.96-.22 4.35-.34 6.56-.23zm-24.35.14a5.57 5.57 0 0 1-1.41.12 2.23 2.23 0 0 1 1.37-.3zm-.71.47a15.89 15.89 0 0 1 3.09 0 2.65 2.65 0 0 1-.77.2c-1.54 0-3.09 0-4.6-.07a7.05 7.05 0 0 1 2.24-.31zm-2.39-.44c0 .15-.21.12-.35.15-.03-.33.18-.3.31-.33zm-.32-.36c0 .19-.27.05-.41.06.01-.29.3-.2.37-.24zm61.8 1c.06-.07.23-.13.31-.05s-.29-.06-.35-.12zm.31-2a1.09 1.09 0 0 0 0 .18c0-.13-.33 0-.33-.17zm-.39.78c-.06.14-.28.1-.41.06s.3-.31.37-.24zm-.06 1.19c0 .13-.3.11-.36.05s.21-.2.32-.23zm-.36-1.86c0 .12-.17.11-.23 0s.13-.24.19-.18zm-1.13-1.25h.14c0 .07.06.23 0 .23s-.15-.32-.18-.41zm1 2a5.87 5.87 0 0 1-1.28-.06c.39-.21 1-.27 1.25-.09zm-1.41-.06c-.5.18-.56-.15 0 0zm-.35.87c-.09 0-.27.07-.23-.08s.23-.23.2-.06zm-1.52-.78a1 1 0 0 0-.36 0c-.01-.25.36-.3.36-.15zm1 .66c-1.65.33-3.8 0-5.45.31 1.52.12 3.24.07 5.05.11 0 .16-.2 0-.18.19.78.12 1.48 0 2.47.07-2.46.25-5.05.07-7.56.09-.59 0-1.19-.06-1.77 0s-1.11.16-1.69.14-1.16-.06-1.86 0c-.37 0-.76.17-1.09.17-.17 0-.33-.11-.51-.13a10 10 0 0 0-1.54.18c-.36 0-.72-.11-1.09-.07a11.15 11.15 0 0 1-1.19 0c-.67 0-1.35.16-2 .18s-1.09-.11-1.64-.09c-1 0-2.09.18-3.09.16a14.07 14.07 0 0 0-1.6 0c-.05-.18.28 0 .18-.23s-.3.11-.41.19a3.89 3.89 0 0 0-2.03-.29c-1 0-2.19 0-3.23-.06-.56 0-1.08.14-1.59.13a16.59 16.59 0 0 0-1.73 0c-1.37.13-3 0-4.51.07-.72 0-1.52-.07-2.32-.08s-1.49.1-2.23.1c-.44 0-.89-.1-1.32-.11a7.7 7.7 0 0 0-.86.16 14 14 0 0 1-2.05 0h-5.56c-.69 0-1.41.12-2.08.1-1 0-2.34.08-3.47.08.24-.13.24-.19 0-.37a8.27 8.27 0 0 0 2.23 0h5.19a4.43 4.43 0 0 0 1.63-.27c-2.33-.17-4.6 0-7 0-.2 0-.42-.13-.64-.12s-.33.13-.49.15a20.48 20.48 0 0 1-2.92-.07c.08-.24.73-.24 1-.25 4.53-.08 10-.1 14.65-.17.42 0 .83-.09 1.23-.08s.65.14 1 .12c.64 0 1.22-.38 1.82 0 2.06-.07 4.89-.17 7.14-.12a7.19 7.19 0 0 0 1.59-.18c.53-.1 1.13 0 1.73-.09.13 0 .28-.12.41-.14a7.82 7.82 0 0 1 1.27.06c.83 0 1.65 0 2.42.07 1 .08 2-.18 3.05-.07a32.64 32.64 0 0 0 3.68-.09h1.37c3.74-.07 7.61-.17 11.28 0 .86 0 1.8-.06 2.69-.06.59 0 1.18.24 1.69.18.13 0 .27-.13.4-.14.53-.02.99.17 1.47.12zm-1.34-8.02c.08-.14.35-.11.54-.14-.02.21-.32.14-.54.14zm-.6-.39c-.12 0-.18.13-.27.14-5.2.64-10.75 1.16-15.9 1.48-.3 0-.6.16-.9.16-1.12 0-2.63.15-4.05.14 0-.17.26-.13.22-.37a5.08 5.08 0 0 0-1.23 0c.11-.26.5-.13.72-.15a13.1 13.1 0 0 1 2.73-.16c-.05.46-2-.13-2.09.37s.79.09 1 .06c1-.12 2.22 0 3-.16 1-.18 2.79-.29 4.18-.37 4.78-.29 9.66-1 13.8-1.3-.33.24-.71.14-1.21.18zm-18.54 1.22c.22-.26.53-.1.81-.11 1.28 0 2.9-.35 4.5-.47s3.31-.23 4.9-.39c.6-.06 1.24 0 1.82 0 .23 0 .46-.17.68-.2.52 0 1 0 1.55-.12 1.19-.17 2.49-.21 3.68-.37a11.53 11.53 0 0 1 2.58-.29c.13-.21.59-.11.77 0-4.91.72-9.5 1.23-14.7 1.63a56.25 56.25 0 0 1-6.59.34zm20.81-1.59c-.22.17-.67.11-.95.2a1.89 1.89 0 0 1 .95-.18zm-.31.6a1 1 0 0 1 .68-.16c-.15.19-.38.12-.7.18zm.35-.56c.08-.12.3-.1.45-.15-.03.18-.26.15-.45.17zm.64-.15c.1 0 .16-.08.31-.05s-.32.24-.32.07zm0-.46a.14.14 0 0 1 .23.14c-.13.01-.24.01-.24-.12zm.08 3.64c0-.22.35-.17.59-.19-.12.16-.41.14-.6.21zm.72-4.06c-2.15.33-4.59.53-6.85.84-.26 0-.5.14-.77.16-2.24.14-4.6.46-6.95.67-3.77.33-7.9.54-11.54.73-.2 0-.39.09-.59.11-.43.05-.84 0-1.28 0-2.35.15-4.69.24-7.32.36a6.94 6.94 0 0 1-2.23 0c6.85-.41 14.14-.66 21.23-1.43.73-.08 1.46 0 2.18-.14 2-.31 4.17-.47 6.26-.7 2.74-.3 5.42-.57 8-.88a.84.84 0 0 1 .55 0c-.07.27-.5.26-.7.3zm-17.86 1.25c-.39-7.35-.73-15.23-1.24-23.14-.09-1.36-.11-2.74-.19-4.1s-.09-3.05-.29-4.4c0 0 0-.13.09-.14.43 0 .51.21.79.62a1.31 1.31 0 0 1 .34 1.13c.06 2.24.14 5 .27 7.27s.29 4.62.27 7.28c0 1.42.2 2.85.24 4.23 0 .46-.12.94-.1 1.41 0 1.07.1 2 .12 3.23 0 .59.11 1.13.13 1.59a8.32 8.32 0 0 0 .05 2 7.47 7.47 0 0 0 1.27.15c4.65.3 8.7.24 13.48.13a30.75 30.75 0 0 0 4.41-.38c.12.33.47.43.48.9-6.39.98-13.22 1.64-20.13 2.24zm18.78 2.82c0-.1.11-.1.23-.1s-.14.22-.24.12zm-.1-.36c.16-.2.53-.21.81-.29-.11.2-.53.19-.82.33zm.31-.51c.26-.2.75-.18 1-.34-.08.33-.82.27-1.01.36zm1 .57c-.09-.28.36-.47.58-.7a9.39 9.39 0 0 1 .71-.7 32.21 32.21 0 0 1 4.66-3.16 3.73 3.73 0 0 1 1.57-.72c.48-.06 2-.18 2.27-.19.94 0 1.81-.12 2.73-.21a9.06 9.06 0 0 0 2-.14.33.33 0 0 1 .32 0 7.36 7.36 0 0 1-1.22.62c-.36.17-.79.29-1.17.44s-2.32 1-2.75 1.12-8.45 3.24-9.7 3.62zm22.7-6.33c-1.13.33-2.47.78-3.7 1.13-.87.25-1.74.49-2.58.75s-1.72.48-2.58.74c-2.3.71-4.64 1.34-7.09 2-1.45.38-2.85 1-4.34 1.29a8.3 8.3 0 0 1 2.07-.83c1.1-.41 2.23-.89 3.38-1.36.76-.31 1.59-.5 2.35-.83l1.08-.48c.75-.31 1.56-.63 2.34-1s1.47-.4 2.08-.73c.17-.09.35-.32.54-.38a4.91 4.91 0 0 1 .77 0 19.14 19.14 0 0 0 2.45-.38c.08-.18-.05-.36 0-.59 2.64-.15 4.95-.49 7.22-.58a29.45 29.45 0 0 1-3.99 1.27zm4.51-1.84c-2.28.2-5.84.38-8.49.7a6.54 6.54 0 0 1-1.51.18c-.22-.07-.64-.56-.88-.76-.9-.73-2.1-1.59-2.83-2.25a5.08 5.08 0 0 1 1.56.28c2.58.45 5.92.74 8.67.93.21 0 .43.11.64.12s.48-.12.73-.11c.67 0 1.49.29 1.95 0 .21-.05.58.32.84.44s.49 0 .5.17c-.01.45-.84.29-1.18.32z"/><path fill="#eeeeef" fill-rule="evenodd" d="M89.19 66.14c0-.53-.52-1-.81-1.39a2.65 2.65 0 0 0 .81 1.39z"/></svg>